<?xml version="1.0" encoding="utf-8"?>
<!-- Generator: Adobe Illustrator 16.0.0, SVG Export Plug-In . SVG Version: 6.00 Build 0)  -->
<!DOCTYPE svg PUBLIC "-//W3C//DTD SVG 1.1//EN" "http://www.w3.org/Graphics/SVG/1.1/DTD/svg11.dtd">
<svg version="1.1" id="Layer_1" xmlns="http://www.w3.org/2000/svg" xmlns:xlink="http://www.w3.org/1999/xlink" x="0px" y="0px"
	 width="71px" height="55px" viewBox="0 0 71 55" enable-background="new 0 0 71 55" xml:space="preserve">
<g>
	<defs>
		<rect id="SVGID_1_" y="0.282" width="70.934" height="54.718"/>
	</defs>
	<clipPath id="SVGID_2_">
		<use xlink:href="#SVGID_1_"  overflow="visible"/>
	</clipPath>
	
		<path clip-path="url(#SVGID_2_)" fill="none" stroke="#0974B7" stroke-width="2" stroke-linecap="round" stroke-linejoin="round" stroke-miterlimit="10" d="
		M46.026,8.315l18.057,16.409 M26.355,7.115L7.52,25.488 M1,19.273L19.668,1.282 M20.059,1.336l6.52,5.234l5.74,1.963 M52.937,1.773
		l16.997,16.736 M17.272,36.01c-1.617,3.107-1.171,5.615,1.058,7.25c-0.836,2.127,2.174,6.434,4.793,6.597
		c0.501,2.509,2.34,3.054,4.625,4.144c1.56-1.146,2.396-1.799,3.957-2.998 M1,19.273c11.814,11.339,23.684,22.733,35.554,34.128
		c2.786,0.545,4.291,0.381,6.074-1.473c3.121,0.981,6.297-1.472,6.966-3.708c2.786,1.418,7.689-0.926,7.077-4.36
		c2.897-0.327,4.124-2.399,4.401-5.344L48.701,27.886 M52.937,1.773l-7.578,6.596c-14.545-3.38-13.43-0.054-22.402,13.302
		c2.173,1.363,4.402,2.781,6.575,4.198c1.895-2.18,5.852-4.906,7.802-7.087 M69.934,18.782L55.611,33.829"/>
</g>
</svg>
