<?xml version="1.0" encoding="utf-8"?>
<!-- Generator: Adobe Illustrator 18.0.0, SVG Export Plug-In . SVG Version: 6.00 Build 0)  -->
<!DOCTYPE svg PUBLIC "-//W3C//DTD SVG 1.1//EN" "http://www.w3.org/Graphics/SVG/1.1/DTD/svg11.dtd">
<svg version="1.1" id="Слой_1" xmlns="http://www.w3.org/2000/svg" xmlns:xlink="http://www.w3.org/1999/xlink" x="0px" y="0px"
	 viewBox="0 0 60 46" enable-background="new 0 0 60 46" xml:space="preserve">
<g>
	<defs>
		<rect id="SVGID_1_" x="10" y="-0.6" width="39.9" height="46.6"/>
	</defs>
	<clipPath id="SVGID_2_">
		<use xlink:href="#SVGID_1_"  overflow="visible"/>
	</clipPath>
	
		<path clip-path="url(#SVGID_2_)" fill="none" stroke="#868686" stroke-width="1.7" stroke-linecap="round" stroke-linejoin="round" stroke-miterlimit="10" d="
		M12,23c1.8-2.6,4.3-4.9,6.9-6.1c0.6-0.7,0.5-1.4,0-2.1c-4.2-4.8,0.3-10.5,5-12.9c1-0.5,1.8-0.5,2.2,0.4c0.4,0.8,0.7,1.6,1.1,2.3
		C28,6.2,31,3.6,31.9,2.9c0.8-0.6,1.7-1.1,2.2,0.1c0.3,0.7,0.6,1.4,1,2.1c1,2.1,4.3-0.9,5.8-1.8c2.9-1.9,1.8,2.3,1.3,3.8
		c-1.8,5-7.9,5-16.4,4.2c-1.3,0.6-2.3,2-2.4,3c0,0,9.1-1.1,14,4.8c4.9,5.9,10.4,14.9,10.4,14.9"/>
	
		<path clip-path="url(#SVGID_2_)" fill="none" stroke="#868686" stroke-width="1.7" stroke-linecap="round" stroke-linejoin="round" stroke-miterlimit="10" d="
		M12,23c2.1,0,4.1,0.1,6.2,0.2c0,0-0.6,3.6,0.1,6.4c1.2,4.8,6.6,4,6.9,1.1c0.1-1.6-1-3.7-1.8-4.6c1,0.5,5.2,2.4,5.3,15.6
		c4.6,2.3,10.8,0.8,15.1-1.3"/>
	
		<path clip-path="url(#SVGID_2_)" fill="none" stroke="#868686" stroke-width="1.7" stroke-linecap="round" stroke-linejoin="round" stroke-miterlimit="10" d="
		M22.8,21c-0.1-0.2-0.1-0.4-0.1-0.6c0-0.9,0.7-1.5,1.6-1.5c0.6,0,1.2,0.3,1.5,0.9"/>
</g>
</svg>
