<?xml version="1.0" encoding="utf-8"?>
<!-- Generator: Adobe Illustrator 18.0.0, SVG Export Plug-In . SVG Version: 6.00 Build 0)  -->
<!DOCTYPE svg PUBLIC "-//W3C//DTD SVG 1.1//EN" "http://www.w3.org/Graphics/SVG/1.1/DTD/svg11.dtd">
<svg version="1.1" id="Слой_1" xmlns="http://www.w3.org/2000/svg" xmlns:xlink="http://www.w3.org/1999/xlink" x="0px" y="0px"
	 viewBox="0 0 60 46" enable-background="new 0 0 60 46" xml:space="preserve">
<g>
	<defs>
		<rect id="SVGID_1_" x="15" y="1.4" width="30.3" height="46.6"/>
	</defs>
	<clipPath id="SVGID_2_">
		<use xlink:href="#SVGID_1_"  overflow="visible"/>
	</clipPath>
	
		<path clip-path="url(#SVGID_2_)" fill="none" stroke="#868686" stroke-width="1.762" stroke-linecap="round" stroke-linejoin="round" stroke-miterlimit="10" d="
		M30.1,3.5c0,0-6.5,7.2-0.1,12.5"/>
	
		<path clip-path="url(#SVGID_2_)" fill="none" stroke="#868686" stroke-width="1.762" stroke-linecap="round" stroke-linejoin="round" stroke-miterlimit="10" d="
		M30.1,3.5c0,0,6.5,7.2,0.1,12.5"/>
	
		<path clip-path="url(#SVGID_2_)" fill="none" stroke="#868686" stroke-width="1.762" stroke-linecap="round" stroke-linejoin="round" stroke-miterlimit="10" d="
		M19.4,14.5c0,0,1.3,9.6,9.5,8.2"/>
	
		<path clip-path="url(#SVGID_2_)" fill="none" stroke="#868686" stroke-width="1.762" stroke-linecap="round" stroke-linejoin="round" stroke-miterlimit="10" d="
		M19.4,14.5c0,0,9.7-0.3,9.6,8"/>
	
		<path clip-path="url(#SVGID_2_)" fill="none" stroke="#868686" stroke-width="1.762" stroke-linecap="round" stroke-linejoin="round" stroke-miterlimit="10" d="
		M40.8,14.5c0,0-1.3,9.6-9.5,8.2"/>
	
		<path clip-path="url(#SVGID_2_)" fill="none" stroke="#868686" stroke-width="1.762" stroke-linecap="round" stroke-linejoin="round" stroke-miterlimit="10" d="
		M40.8,14.3c0,0-9.6-0.3-9.6,8"/>
	
		<path clip-path="url(#SVGID_2_)" fill="none" stroke="#868686" stroke-width="1.762" stroke-linecap="round" stroke-linejoin="round" stroke-miterlimit="10" d="
		M17.7,23.6c0,0,1.5,11.2,11,9.6"/>
	
		<path clip-path="url(#SVGID_2_)" fill="none" stroke="#868686" stroke-width="1.762" stroke-linecap="round" stroke-linejoin="round" stroke-miterlimit="10" d="
		M17.7,23.6c0,0,11.3-0.3,11.2,9.4"/>
	
		<path clip-path="url(#SVGID_2_)" fill="none" stroke="#868686" stroke-width="1.762" stroke-linecap="round" stroke-linejoin="round" stroke-miterlimit="10" d="
		M42.2,23.6c0,0-1.5,11.2-11,9.6"/>
	
		<path clip-path="url(#SVGID_2_)" fill="none" stroke="#868686" stroke-width="1.762" stroke-linecap="round" stroke-linejoin="round" stroke-miterlimit="10" d="
		M42.2,23.3c0,0-11.2-0.3-11.2,9.4"/>
	
		<path clip-path="url(#SVGID_2_)" fill="none" stroke="#868686" stroke-width="1.762" stroke-linecap="round" stroke-linejoin="round" stroke-miterlimit="10" d="
		M17.1,34c0,0,1.6,11.9,11.8,10.2"/>
	
		<path clip-path="url(#SVGID_2_)" fill="none" stroke="#868686" stroke-width="1.762" stroke-linecap="round" stroke-linejoin="round" stroke-miterlimit="10" d="
		M17.1,34c0,0,12.1-0.3,12,10"/>
	
		<path clip-path="url(#SVGID_2_)" fill="none" stroke="#868686" stroke-width="1.762" stroke-linecap="round" stroke-linejoin="round" stroke-miterlimit="10" d="
		M43.2,34c0,0-1.6,11.9-11.8,10.2"/>
	
		<path clip-path="url(#SVGID_2_)" fill="none" stroke="#868686" stroke-width="1.762" stroke-linecap="round" stroke-linejoin="round" stroke-miterlimit="10" d="
		M43.2,33.6c0,0-12-0.3-12,10"/>
</g>
<line fill="none" stroke="#868686" stroke-width="1.762" stroke-linecap="round" stroke-linejoin="round" stroke-miterlimit="10" x1="41.2" y1="6.8" x2="41.2" y2="11.5"/>
<line fill="none" stroke="#868686" stroke-width="1.762" stroke-linecap="round" stroke-linejoin="round" stroke-miterlimit="10" x1="19.4" y1="7.4" x2="19.4" y2="12"/>
</svg>
