<?xml version="1.0" encoding="utf-8"?>
<!-- Generator: Adobe Illustrator 18.0.0, SVG Export Plug-In . SVG Version: 6.00 Build 0)  -->
<!DOCTYPE svg PUBLIC "-//W3C//DTD SVG 1.1//EN" "http://www.w3.org/Graphics/SVG/1.1/DTD/svg11.dtd">
<svg version="1.1" id="Слой_1" xmlns="http://www.w3.org/2000/svg" xmlns:xlink="http://www.w3.org/1999/xlink" x="0px" y="0px"
	 viewBox="0 0 60 46" enable-background="new 0 0 60 46" xml:space="preserve">
<g>
	<g>
		<defs>
			<rect id="SVGID_1_" x="1.1" width="56.9" height="46.9"/>
		</defs>
		<clipPath id="SVGID_2_">
			<use xlink:href="#SVGID_1_"  overflow="visible"/>
		</clipPath>
		
			<path clip-path="url(#SVGID_2_)" fill="none" stroke="#868686" stroke-width="1.777" stroke-linecap="round" stroke-linejoin="round" stroke-miterlimit="10" d="
			M29.3,15.6c0,0-7.4,8.2-0.1,14.3 M29.3,15.6c0,0,7.4,8.2,0.1,14.3 M17.2,27.2c0,0,1.5,10.9,10.8,9.4 M17.2,27.2c0,0,11-0.3,11,9.2
			 M41.7,27.2c0,0-1.5,10.9-10.8,9.4 M41.7,26.8c0,0-11.1-0.3-11,9.2 M9.8,44.1V22c0-0.8,0.2-1.7,0.8-2.2L27.2,3
			c1.2-1.2,3.1-1.2,4.3,0l16.7,17c0.6,0.6,0.9,1.4,0.9,2v22.3 M3.3,44.7h52.4"/>
	</g>
</g>
</svg>
