<?xml version="1.0" encoding="utf-8"?>
<!-- Generator: Adobe Illustrator 16.0.0, SVG Export Plug-In . SVG Version: 6.00 Build 0)  -->
<!DOCTYPE svg PUBLIC "-//W3C//DTD SVG 1.1//EN" "http://www.w3.org/Graphics/SVG/1.1/DTD/svg11.dtd">
<svg version="1.1" id="Layer_1" xmlns="http://www.w3.org/2000/svg" xmlns:xlink="http://www.w3.org/1999/xlink" x="0px" y="0px"
	 width="44px" height="57px" viewBox="0 0 44 57" enable-background="new 0 0 44 57" xml:space="preserve">
<g>
	<defs>
		<rect id="SVGID_1_" y="3.426" width="44" height="50.633"/>
	</defs>
	<clipPath id="SVGID_2_">
		<use xlink:href="#SVGID_1_"  overflow="visible"/>
	</clipPath>
	
		<path clip-path="url(#SVGID_2_)" fill="none" stroke="#FFFFFF" stroke-width="1.87" stroke-linecap="round" stroke-linejoin="round" stroke-miterlimit="10" d="
		M18.866,9.502c0,0-12.533,1.392-11.912,15.905c0.661,14.477,0.331,16.31-4.726,19.645"/>
	
		<line clip-path="url(#SVGID_2_)" fill="none" stroke="#FFFFFF" stroke-width="1.87" stroke-linecap="round" stroke-linejoin="round" stroke-miterlimit="10" x1="2.337" y1="45.052" x2="41.588" y2="45.052"/>
	
		<path clip-path="url(#SVGID_2_)" fill="none" stroke="#FFFFFF" stroke-width="1.87" stroke-linecap="round" stroke-linejoin="round" stroke-miterlimit="10" d="
		M25.536,48.644c-0.11,1.796-1.65,3.188-3.518,3.188c-1.943,0-3.52-1.538-3.52-3.443"/>
	
		<path clip-path="url(#SVGID_2_)" fill="none" stroke="#FFFFFF" stroke-width="1.87" stroke-linecap="round" stroke-linejoin="round" stroke-miterlimit="10" d="
		M19.306,7.12c1.54-1.356,3.848-1.466,5.278,0"/>
	
		<path clip-path="url(#SVGID_2_)" fill="none" stroke="#FFFFFF" stroke-width="1.87" stroke-linecap="round" stroke-linejoin="round" stroke-miterlimit="10" d="
		M25.097,9.502c0,0,12.571,1.392,11.912,15.905c-0.661,14.477-0.331,16.31,4.764,19.609"/>
</g>
</svg>
