<?xml version="1.0" encoding="utf-8"?>
<!-- Generator: Adobe Illustrator 18.0.0, SVG Export Plug-In . SVG Version: 6.00 Build 0)  -->
<!DOCTYPE svg PUBLIC "-//W3C//DTD SVG 1.1//EN" "http://www.w3.org/Graphics/SVG/1.1/DTD/svg11.dtd">
<svg version="1.1" id="Слой_1" xmlns="http://www.w3.org/2000/svg" xmlns:xlink="http://www.w3.org/1999/xlink" x="0px" y="0px"
	 viewBox="0 0 16 15" enable-background="new 0 0 16 15" xml:space="preserve">
<g>
	<defs>
		<rect id="SVGID_1_" y="0.2" width="15.5" height="14.8"/>
	</defs>
	<clipPath id="SVGID_2_">
		<use xlink:href="#SVGID_1_"  overflow="visible"/>
	</clipPath>
	<path clip-path="url(#SVGID_2_)" fill="#8D8A8C" d="M5.4,15h3.3V9.4c0-0.3,0-0.6,0.1-0.8C8.9,8.3,9.1,8,9.4,7.8
		c0.3-0.2,0.6-0.4,1.1-0.4c1.1,0,1.7,0.8,1.7,2.3V15h3.3V9.3c0-1.5-0.3-2.6-1-3.4c-0.7-0.8-1.6-1.1-2.8-1.1c-1.3,0-2.3,0.6-3,1.7v0
		h0l0,0V5H5.4c0,0.3,0,1.3,0,3C5.4,9.7,5.4,12,5.4,15 M0.2,5h3.3v10H0.2V5z M0,1.9C0,1.4,0.2,1,0.5,0.7c0.3-0.3,0.8-0.5,1.4-0.5
		c0.5,0,1,0.2,1.3,0.5C3.6,1,3.7,1.4,3.7,2c0,0.5-0.2,0.9-0.5,1.2C2.9,3.5,2.4,3.6,1.9,3.6h0c-0.5,0-1-0.2-1.3-0.5
		C0.2,2.8,0,2.4,0,1.9"/>
</g>
</svg>
