<?xml version="1.0" encoding="utf-8"?>
<!-- Generator: Adobe Illustrator 18.0.0, SVG Export Plug-In . SVG Version: 6.00 Build 0)  -->
<!DOCTYPE svg PUBLIC "-//W3C//DTD SVG 1.1//EN" "http://www.w3.org/Graphics/SVG/1.1/DTD/svg11.dtd">
<svg version="1.1" id="Слой_1" xmlns="http://www.w3.org/2000/svg" xmlns:xlink="http://www.w3.org/1999/xlink" x="0px" y="0px"
	 viewBox="0 0 46 48" enable-background="new 0 0 46 48" xml:space="preserve">
<g>
	<defs>
		<rect id="SVGID_1_" y="-0.6" width="45.5" height="47.6"/>
	</defs>
	<clipPath id="SVGID_2_">
		<use xlink:href="#SVGID_1_"  overflow="visible"/>
	</clipPath>
	
		<path clip-path="url(#SVGID_2_)" fill="none" stroke="#FFFFFF" stroke-width="1.766" stroke-linecap="round" stroke-linejoin="round" stroke-miterlimit="10" d="
		M22.9,1.5c0,0-12.7,14.1-0.2,24.7"/>
	
		<path clip-path="url(#SVGID_2_)" fill="none" stroke="#FFFFFF" stroke-width="1.766" stroke-linecap="round" stroke-linejoin="round" stroke-miterlimit="10" d="
		M22.9,1.5c0,0,12.7,14.1,0.2,24.7"/>
	
		<path clip-path="url(#SVGID_2_)" fill="none" stroke="#FFFFFF" stroke-width="1.766" stroke-linecap="round" stroke-linejoin="round" stroke-miterlimit="10" d="
		M34.3,44.9H3.4c-1,0-1.8-0.8-1.8-1.8V37c0-1,0.8-1.8,1.8-1.8h11.3v-3.8c0-1,0.8-1.8,1.8-1.8h12.2c1,0,1.8,0.8,1.8,1.8v3.8h11.6
		c1,0,1.8,0.8,1.8,1.8v6.1"/>
</g>
</svg>
