<?xml version="1.0" encoding="utf-8"?>
<!-- Generator: Adobe Illustrator 18.0.0, SVG Export Plug-In . SVG Version: 6.00 Build 0)  -->
<!DOCTYPE svg PUBLIC "-//W3C//DTD SVG 1.1//EN" "http://www.w3.org/Graphics/SVG/1.1/DTD/svg11.dtd">
<svg version="1.1" id="Слой_1" xmlns="http://www.w3.org/2000/svg" xmlns:xlink="http://www.w3.org/1999/xlink" x="0px" y="0px"
	 viewBox="0 0 62 55" enable-background="new 0 0 62 55" xml:space="preserve">
<g>
	<defs>
		<rect id="SVGID_1_" x="6" y="0" width="50.4" height="55"/>
	</defs>
	<clipPath id="SVGID_2_">
		<use xlink:href="#SVGID_1_"  overflow="visible"/>
	</clipPath>
	
		<path clip-path="url(#SVGID_2_)" fill="none" stroke="#FFFFFF" stroke-width="1.829" stroke-linecap="round" stroke-linejoin="round" stroke-miterlimit="10" d="
		M8.2,44c1.3-10.3,2.7-20.7,4-31.1c0.2-1.6,0.3-1.9,2-1.9h3.8c1.4,0,1.6,0.2,1.8,1.9l2.8,18.7h28.5c2.4,0.1,2.8,0.5,2.8,3.2
		c0.1,5.1,0.1,10.1,0.2,15.2c0.1,1.8-1.1,2.8-3.1,2.7H8.2"/>
	
		<path clip-path="url(#SVGID_2_)" fill="none" stroke="#FFFFFF" stroke-width="1.829" stroke-linecap="round" stroke-linejoin="round" stroke-miterlimit="10" d="
		M15.8,7.7c0,0,3.4-5.6,10-2.1c6.6,3.4,7.6,3.7,10.2,2"/>
</g>
<rect x="27.3" y="40.4" fill="none" stroke="#FFFFFF" stroke-width="1.829" stroke-linecap="round" stroke-linejoin="round" stroke-miterlimit="10" width="8" height="4.6"/>
<rect x="39.6" y="40.4" fill="none" stroke="#FFFFFF" stroke-width="1.829" stroke-linecap="round" stroke-linejoin="round" stroke-miterlimit="10" width="8" height="4.6"/>
</svg>
