<?xml version="1.0" encoding="utf-8"?>
<!-- Generator: Adobe Illustrator 18.0.0, SVG Export Plug-In . SVG Version: 6.00 Build 0)  -->
<!DOCTYPE svg PUBLIC "-//W3C//DTD SVG 1.1//EN" "http://www.w3.org/Graphics/SVG/1.1/DTD/svg11.dtd">
<svg version="1.1" id="Слой_1" xmlns="http://www.w3.org/2000/svg" xmlns:xlink="http://www.w3.org/1999/xlink" x="0px" y="0px"
	 viewBox="0 0 76 76" enable-background="new 0 0 76 76" xml:space="preserve">
<g>
	<defs>
		<rect id="SVGID_1_" x="1" y="0.8" width="74.2" height="74.2"/>
	</defs>
	<clipPath id="SVGID_2_">
		<use xlink:href="#SVGID_1_"  overflow="visible"/>
	</clipPath>
	<path clip-path="url(#SVGID_2_)" fill="none" stroke="#AEDEF2" stroke-width="2" d="M38.1,74C58,74,74.2,57.8,74.2,37.9
		S58,1.8,38.1,1.8S2,18,2,37.9S18.2,74,38.1,74z"/>
	<path clip-path="url(#SVGID_2_)" fill="none" stroke="#AEDEF2" stroke-width="2" d="M21.3,26.6L50,26.8c3.4,0,4.3,0.9,5.7,3.3
		c2.1,3.8,4.2,7.6,6.3,11.5c0,2.5,0,1.9-0.1,4.4l-40.7,0.2"/>
	<path clip-path="url(#SVGID_2_)" fill="#1BB1E8" d="M33.9,49.2c1.7,0,3.1-1.3,3.1-2.9c0-1.6-1.4-3-3.1-3c-1.7,0-3.1,1.3-3.1,3
		C30.9,47.9,32.3,49.2,33.9,49.2"/>
	<path clip-path="url(#SVGID_2_)" fill="none" stroke="#AEDEF2" stroke-width="2" d="M33.9,49.2c1.7,0,3.1-1.3,3.1-2.9
		c0-1.6-1.4-3-3.1-3c-1.7,0-3.1,1.3-3.1,3C30.9,47.9,32.3,49.2,33.9,49.2z"/>
	<path clip-path="url(#SVGID_2_)" fill="#1BB1E8" d="M51.4,49.2c1.7,0,3.1-1.4,3.1-3c0-1.6-1.4-3-3.1-3c-1.7,0-3.1,1.3-3.1,3
		C48.4,47.8,49.8,49.2,51.4,49.2"/>
	<path clip-path="url(#SVGID_2_)" fill="none" stroke="#AEDEF2" stroke-width="2" d="M51.4,49.2c1.7,0,3.1-1.4,3.1-3
		c0-1.6-1.4-3-3.1-3c-1.7,0-3.1,1.3-3.1,3C48.4,47.8,49.8,49.2,51.4,49.2z"/>
</g>
<path fill="none" stroke="#AEDEF2" stroke-width="2" d="M13.3,41.2h11.3 M16.6,36.3h11.3 M13.2,31.6h11.3"/>
</svg>
