<?xml version="1.0" encoding="utf-8"?>
<!-- Generator: Adobe Illustrator 18.0.0, SVG Export Plug-In . SVG Version: 6.00 Build 0)  -->
<!DOCTYPE svg PUBLIC "-//W3C//DTD SVG 1.1//EN" "http://www.w3.org/Graphics/SVG/1.1/DTD/svg11.dtd">
<svg version="1.1" id="Слой_1" xmlns="http://www.w3.org/2000/svg" xmlns:xlink="http://www.w3.org/1999/xlink" x="0px" y="0px"
	 viewBox="0 0 97 87" enable-background="new 0 0 97 87" xml:space="preserve">
<g>
	<defs>
		<rect id="SVGID_1_" x="-1" y="-0.7" width="97.8" height="87.7"/>
	</defs>
	<clipPath id="SVGID_2_">
		<use xlink:href="#SVGID_1_"  overflow="visible"/>
	</clipPath>
	
		<path clip-path="url(#SVGID_2_)" fill="none" stroke="#FFFFFF" stroke-width="3.375" stroke-linecap="round" stroke-linejoin="round" stroke-miterlimit="10" d="
		M79.6,48.7V77c0,3.3-2.6,6-6,6H22.1c-3.2,0-6-2.6-6-6V49"/>
	
		<path clip-path="url(#SVGID_2_)" fill="none" stroke="#FFFFFF" stroke-width="3.375" stroke-linecap="round" stroke-linejoin="round" stroke-miterlimit="10" d="
		M35.7,68.4c0,0-8.9-5.4-3.4-15.9c5.4-10.5,5.8-12,3.2-16.2"/>
	
		<path clip-path="url(#SVGID_2_)" fill="none" stroke="#FFFFFF" stroke-width="3.375" stroke-linecap="round" stroke-linejoin="round" stroke-miterlimit="10" d="
		M49.3,68.4c0,0-8.9-5.4-3.4-15.9c5.5-10.5,5.9-12,3.2-16.2"/>
	
		<path clip-path="url(#SVGID_2_)" fill="none" stroke="#FFFFFF" stroke-width="3.375" stroke-linecap="round" stroke-linejoin="round" stroke-miterlimit="10" d="
		M62.8,68.4c0,0-8.9-5.4-3.4-15.9c5.5-10.5,5.9-12,3.2-16.2"/>
	
		<path clip-path="url(#SVGID_2_)" fill="none" stroke="#FFFFFF" stroke-width="3.375" stroke-linecap="round" stroke-linejoin="round" stroke-miterlimit="10" d="
		M3,47.1L45.6,4.6c1.3-1.3,3.3-1.3,4.6,0c14.2,14.2,28.3,28.5,42.5,42.7"/>
</g>
<line fill="none" stroke="#FFFFFF" stroke-width="3.375" stroke-linecap="round" stroke-linejoin="round" stroke-miterlimit="10" x1="79.6" y1="34.1" x2="79.6" y2="16.4"/>
</svg>
