<?xml version="1.0" encoding="utf-8"?>
<!-- Generator: Adobe Illustrator 18.0.0, SVG Export Plug-In . SVG Version: 6.00 Build 0)  -->
<!DOCTYPE svg PUBLIC "-//W3C//DTD SVG 1.1//EN" "http://www.w3.org/Graphics/SVG/1.1/DTD/svg11.dtd">
<svg version="1.1" id="Слой_1" xmlns="http://www.w3.org/2000/svg" xmlns:xlink="http://www.w3.org/1999/xlink" x="0px" y="0px"
	 viewBox="0 0 184 65" enable-background="new 0 0 184 65" xml:space="preserve">
<g>
	<defs>
		<rect id="SVGID_1_" y="13.4" width="184.4" height="39.6"/>
	</defs>
	<clipPath id="SVGID_2_">
		<use xlink:href="#SVGID_1_"  overflow="visible"/>
	</clipPath>
	<path clip-path="url(#SVGID_2_)" fill="#0273B6" d="M26.7,13.4c-0.7,0.1-3.4,1.4-4.8,11.9l3.8,6.7c0.2,0.3,0.6,1.1,0.6,1.1
		c0.4,0.8,0.5,1.7,0.5,2.6c0,3.6-2.9,6.5-6.5,6.5c-3.6,0-6.5-2.9-6.5-6.5c0-0.9,0.2-1.8,0.5-2.6l0.1-0.2c0.1-0.3,0.3-0.5,0.5-0.8
		l3.8-6.8c-1.4-10.5-4-11.7-4.8-11.9C5.8,16.1,0,23.7,0,32.7C0,43.9,9.1,53,20.3,53c11.2,0,20.3-9.1,20.3-20.3
		C40.6,23.7,34.8,16.1,26.7,13.4"/>
	<path clip-path="url(#SVGID_2_)" fill="#0D95D3" d="M13.9,13.4C7.3,15.6,2.1,21.2,0.5,28.1c1.3,1.2,2.6,2.1,4.1,2.9
		c1.8-3.2,6.9-5.9,13.9-7.5C17,14.7,14.6,13.5,13.9,13.4"/>
	<path clip-path="url(#SVGID_2_)" fill="#0EB1E7" d="M4.6,31c2.2,1.2,4.6,1.8,7,1.8c1,0,2-0.1,3-0.3c0.1-0.1,0.2-0.3,0.3-0.4
		l3.8-6.8c0-0.3-0.1-0.6-0.1-0.9c0-0.1,0-0.1,0-0.1c0-0.2-0.1-0.4-0.1-0.5c0-0.1,0-0.1,0-0.2C11.5,25.1,6.4,27.7,4.6,31"/>
	<path clip-path="url(#SVGID_2_)" fill="#0D95D3" d="M28.8,14.2C28.7,14.2,28.7,14.2,28.8,14.2c-0.4-0.2-0.6-0.3-0.9-0.4
		c-0.1,0-0.1-0.1-0.2-0.1c-0.3-0.1-0.6-0.2-0.9-0.3c-0.7,0.1-2.9,1.2-4.4,9.3c1.6-0.3,3.4-0.5,5.1-0.6c1.2-2.1,2.3-4.4,3.2-6.9
		C30,14.9,29.4,14.5,28.8,14.2"/>
	<path clip-path="url(#SVGID_2_)" fill="#0C9DD9" d="M14.1,43.4c-1.5,2-2.9,4.2-4.2,6.7c3,1.8,6.6,2.9,10.4,2.9
		c5.3,0,10.1-2,13.7-5.4c0,0,0,0-0.1,0.1C26.3,47.1,19.3,45.6,14.1,43.4"/>
	<path clip-path="url(#SVGID_2_)" fill="#0EB1E7" d="M19.5,42c-0.1,0-0.3,0-0.4-0.1c-0.1,0-0.2,0-0.3-0.1c-0.1,0-0.2-0.1-0.3-0.1
		c-0.1,0-0.2-0.1-0.3-0.1c-0.1,0-0.2-0.1-0.3-0.1c-0.1,0-0.2-0.1-0.3-0.1c-0.1,0-0.1-0.1-0.2-0.1c-0.1-0.1-0.2-0.1-0.3-0.2
		c0,0,0,0-0.1,0c-0.3-0.2-0.6-0.3-0.8-0.5c0,0,0,0,0,0c-0.7,0.9-1.5,1.8-2.2,2.8c5.3,2.2,12.2,3.7,19.9,4.3c0,0,0.1-0.1,0.1-0.1
		c0.2-0.2,0.3-0.3,0.5-0.5c0.1-0.1,0.1-0.1,0.2-0.2c0.2-0.2,0.4-0.4,0.6-0.7c0.1-0.1,0.1-0.1,0.1-0.2c0.2-0.2,0.3-0.4,0.5-0.5
		c0.1-0.1,0.1-0.2,0.2-0.3c0.1-0.2,0.3-0.3,0.4-0.5c0.1-0.1,0.1-0.2,0.2-0.3c0.2-0.2,0.3-0.5,0.5-0.7c0-0.1,0.1-0.1,0.1-0.2
		c0.1-0.2,0.3-0.4,0.4-0.6c0.1-0.1,0.1-0.2,0.2-0.3c0.1-0.2,0.2-0.4,0.3-0.5c0.1-0.1,0.1-0.2,0.2-0.3c0.1-0.2,0.2-0.4,0.3-0.7
		c0-0.1,0.1-0.1,0.1-0.2c0.1-0.3,0.2-0.5,0.3-0.8c0-0.1,0.1-0.2,0.1-0.3c0.1-0.2,0.1-0.4,0.2-0.6c0-0.1,0.1-0.2,0.1-0.3
		c0-0.1,0-0.1,0.1-0.2c-1.3-3.1-3.2-5.3-5.8-6.3c-2.3-0.9-5-0.7-7.7,0.4c0,0,0,0.1,0.1,0.1c0,0,0,0,0,0c0,0,0,0,0,0
		c0.4,0.8,0.5,1.7,0.5,2.6c0,3.6-2.9,6.5-6.5,6.5c-0.2,0-0.4,0-0.6,0C19.6,42.1,19.5,42.1,19.5,42"/>
	<path clip-path="url(#SVGID_2_)" fill="#0C9DD9" d="M13.8,35.6c0-0.9,0.2-1.8,0.5-2.6l0.1-0.2c0.1-0.1,0.1-0.3,0.2-0.4
		c-1,0.2-2,0.3-3,0.3c-2.5,0-4.8-0.6-7-1.8c-0.5,0.8-0.7,1.6-0.8,2.5c-0.2,3.7,3.8,7.3,10.2,9.9h0c0.3-0.5,0.7-0.9,1-1.3
		c0-0.1,0.1-0.1,0.1-0.2c0.3-0.4,0.7-0.9,1.1-1.3c0,0,0,0,0,0C14.8,39.5,13.8,37.7,13.8,35.6"/>
	<path clip-path="url(#SVGID_2_)" fill="#0C9DD9" d="M25.7,32c0.2,0.2,0.4,0.7,0.5,0.9c2.7-1.1,5.3-1.3,7.7-0.4
		c0.8,0.3,1.6,0.7,2.2,1.3c0,0,0.1,0,0.1,0.1c0.1,0.1,0.2,0.2,0.3,0.3c0.1,0.1,0.1,0.1,0.2,0.2c0.1,0.1,0.1,0.1,0.2,0.2
		c0.1,0.1,0.2,0.2,0.3,0.3c0,0,0,0.1,0.1,0.1c0.1,0.1,0.2,0.3,0.4,0.4l0,0c0.8,1,1.5,2.2,2.1,3.5c0.6-1.9,0.9-4,0.9-6.1
		c0-4-1.1-7.7-3.1-10.8c-3.5-0.1-6.9,0-10,0.2c-1.3,2.1-2.7,3.9-4.2,5.5L25.7,32z"/>
	<path clip-path="url(#SVGID_2_)" fill="#0EB1E7" d="M27.5,22.1c-1.8,0.2-3.5,0.4-5.2,0.6c-0.1,0.4-0.1,0.7-0.2,1.1
		c0,0.1,0,0.1,0,0.2c-0.1,0.4-0.1,0.8-0.2,1.2l1.3,2.3C24.8,26,26.2,24.2,27.5,22.1"/>
	<path clip-path="url(#SVGID_2_)" fill="#FFFFFF" d="M50.4,41.8h4.9V19.2c-0.1,0-0.4-0.1-0.9-0.2c-0.5-0.1-0.9-0.2-1.5-0.2
		c-0.8,0-1.4,0.1-1.8,0.5c-0.5,0.3-0.7,0.8-0.7,1.6V41.8z"/>
	<path clip-path="url(#SVGID_2_)" fill="#FFFFFF" d="M67.5,24.1c-1.1,0-2.1,0.2-3,0.4c-1,0.3-1.9,0.8-2.7,1.4
		c-0.7,0.6-1.3,1.3-1.7,2.2c-0.4,0.9-0.6,1.9-0.6,3v10.6h4.7v-9.4c0-2.7,1.2-4,3.6-4.1c2.4,0.1,3.6,1.5,3.6,4.1v9.4h4.7V31.2
		c0-1.1-0.2-2.2-0.6-3c-0.4-0.9-1-1.6-1.7-2.2c-0.7-0.6-1.6-1.1-2.7-1.4c-0.9-0.3-1.9-0.4-3-0.4H67.5z"/>
	<path clip-path="url(#SVGID_2_)" fill="#FFFFFF" d="M90.1,37.5c0,0-0.1,0.1-0.3,0.2c-0.2,0.1-0.4,0.2-0.6,0.3s-0.5,0.2-0.8,0.3
		c-0.3,0.1-0.6,0.1-0.9,0.1c-0.7,0-1.3-0.2-1.8-0.5c-0.5-0.3-0.7-1-0.7-2v-7.4h5.2c0-0.1,0.1-0.3,0.3-0.7c0.1-0.3,0.2-0.8,0.2-1.2
		c0-0.6-0.2-1.1-0.5-1.4c-0.3-0.3-0.8-0.5-1.6-0.5H85v-4.6c-0.1,0-0.4-0.1-0.8-0.2c-0.4-0.1-0.9-0.2-1.4-0.2c-0.7,0-1.3,0.1-1.8,0.4
		s-0.7,0.8-0.7,1.6v14.6c0,1.7,0.5,3.2,1.4,4.3c1,1.1,2.5,1.6,4.7,1.6c0.8,0,1.6-0.1,2.2-0.3c0.7-0.2,1.2-0.4,1.7-0.6
		c0.5-0.2,0.8-0.4,1.1-0.6c0.2-0.2,0.4-0.3,0.4-0.4L90.1,37.5z"/>
	<path clip-path="url(#SVGID_2_)" fill="#FFFFFF" d="M125.5,25.3c-0.2-0.3-0.6-0.5-1-0.7c-0.4-0.2-0.9-0.3-1.5-0.4
		c-0.6-0.1-1.2-0.1-1.8-0.1c-0.2,0-0.4,0-0.6,0c-0.9,0-1.7,0.2-2.5,0.4c-0.9,0.3-1.7,0.7-2.3,1.3c-0.6,0.6-1.2,1.3-1.5,2.1
		c-0.4,0.9-0.6,1.8-0.6,2.9v10.8h4.7V31.2c0-1.1,0.3-2,0.9-2.5c0.6-0.5,1.3-0.7,2.1-0.7c0.1,0,0.2,0,0.2,0c0.3,0,0.6,0,1,0.1
		c0.3,0,0.7,0.1,1,0.2c0.3,0.1,0.5,0.2,0.8,0.2c0.2,0.1,0.4,0.2,0.4,0.2c0.2-0.2,0.4-0.4,0.6-0.8c0.2-0.4,0.4-0.9,0.4-1.5
		C125.8,26,125.7,25.6,125.5,25.3"/>
	<path clip-path="url(#SVGID_2_)" fill="#FFFFFF" d="M182.9,29.5L182.9,29.5c1.1-1,1.3-1.9,1.4-2.3c0-0.1,0-0.2,0-0.2
		c0,0,0-0.1,0-0.1v0c0-0.1,0-0.2,0-0.3c0-0.6-0.1-1.1-0.3-1.4c-0.2-0.4-0.7-0.5-1.3-0.5h-14.7c0,0.1-0.1,0.3-0.2,0.7
		c-0.1,0.4-0.1,0.7-0.1,1.1c0,0.6,0.1,1.1,0.4,1.4c0.2,0.4,0.7,0.5,1.3,0.5h8.7L167.7,38v3.8h16.5V38h-10.6L182.9,29.5z"/>
	<path clip-path="url(#SVGID_2_)" fill="#FFFFFF" d="M139.3,35.7c-0.7,0.9-1.7,1.3-3,1.3c-1.3,0-2.2-0.4-3-1.3
		c-0.7-0.8-1.1-2-1.1-3.4c0-1.4,0.4-2.5,1.1-3.4s1.7-1.3,3-1.3c1.3,0,2.2,0.4,3,1.3c0.7,0.8,1.1,2,1.1,3.4
		C140.4,33.7,140.1,34.8,139.3,35.7 M145.1,32.3c0-1.2-0.2-2.3-0.6-3.3c-0.4-1-1-1.9-1.8-2.6c-0.8-0.7-1.7-1.3-2.8-1.7
		c-1-0.4-2.1-0.6-3.2-0.6c-0.1,0-0.3,0-0.4,0c-1.3,0-2.4,0.2-3.5,0.6c-1.1,0.4-2,1-2.8,1.7c-0.8,0.7-1.4,1.6-1.8,2.6
		c-0.4,1-0.7,2.1-0.7,3.3c0,1.2,0.2,2.3,0.6,3.3c0.4,1,1,1.9,1.8,2.6c0.8,0.7,1.7,1.3,2.8,1.7c1.1,0.4,2.2,0.6,3.5,0.6
		c0,0,0.1,0,0.1,0c1.3,0,2.4-0.2,3.5-0.6c0.2-0.1,0.4-0.1,0.5-0.2V40c0,0.9-0.1,1.6-0.4,2.1c-0.2,0.6-0.6,1-1,1.4
		c-0.4,0.4-1,0.6-1.6,0.8c-0.6,0.2-1.3,0.2-2,0.2c-0.7,0-1.4,0-2-0.2c-0.6-0.1-1.2-0.2-1.6-0.3c-0.5-0.1-0.8-0.2-1.1-0.4
		c-0.3-0.1-0.4-0.2-0.5-0.2l-1.9,3.3c0.1,0,0.4,0.2,0.5,0.2c0.4,0.2,0.9,0.3,1.6,0.5c0.6,0.2,1.4,0.3,2.2,0.4
		c0.8,0.1,1.7,0.2,2.7,0.2c1.4,0,2.7-0.2,3.9-0.6c1.2-0.4,2.2-1,3.1-1.8c0.9-0.8,1.6-1.9,2-3.1c0.5-1.3,0.7-2.8,0.7-4.5v-4.3
		c0-0.3,0-0.6,0-0.9C145.1,32.7,145.1,32.5,145.1,32.3"/>
	<path clip-path="url(#SVGID_2_)" fill="#FFFFFF" d="M159.7,38.7c-0.3,0.1-1.2,0.2-1.7,0.3c-0.6,0.1-1.3,0.1-2.1,0.1
		c-0.8,0-1.5-0.1-2-0.2c-0.5-0.1-0.9-0.3-1.2-0.6c-0.3-0.2-0.5-0.5-0.6-0.8c-0.1-0.3-0.1-0.6-0.1-0.9c0-0.4,0.1-0.7,0.2-1
		c0.1-0.3,0.3-0.6,0.6-0.8c0.3-0.2,0.7-0.4,1.2-0.6c0.5-0.1,1.2-0.2,2-0.2c0.4,0,0.7,0,1.1,0c0.3,0,0.7,0,1,0.1c0.3,0,0.5,0,0.7,0.1
		c0.1,0,0.7,0.1,1,0.2V38.7z M163.7,28c-0.4-1-1.1-1.7-1.9-2.3c-0.8-0.6-1.8-1-2.9-1.2c-1.1-0.2-2.4-0.4-3.7-0.4
		c-0.7,0-1.4,0-2.1,0.1c-0.7,0.1-1.3,0.2-1.8,0.5c-0.5,0.2-0.9,0.5-1.3,0.8c-0.3,0.3-0.5,0.8-0.5,1.3c0,0.5,0.1,0.9,0.4,1.3
		c0.2,0.4,0.5,0.7,0.8,0.9c0.2-0.1,0.4-0.2,0.6-0.4s0.6-0.3,0.9-0.5c0.4-0.2,0.8-0.3,1.3-0.4c0.5-0.1,1.1-0.2,1.8-0.2
		c1.5,0,2.6,0.3,3.3,0.8c0.7,0.6,1.1,1.4,1.1,2.4v0.5c-0.1,0-0.5-0.1-1.2-0.1c-0.7-0.1-1.5-0.1-2.5-0.1c-1.5,0-2.7,0.1-3.7,0.3
		c-1,0.2-1.9,0.6-2.5,1c-0.6,0.5-1.1,1-1.4,1.8c-0.3,0.7-0.4,1.6-0.4,2.5c0,0.8,0.1,1.5,0.4,2.2c0.2,0.7,0.7,1.2,1.3,1.7
		c0.6,0.5,1.5,0.9,2.5,1.2c1.1,0.3,2.4,0.4,4.1,0.4c1.1,0,2.2,0,3.2-0.1c1-0.1,1.8-0.1,2.5-0.2c0.7-0.1,1.3-0.1,1.7-0.2
		c0.4-0.1,0.7-0.1,0.7-0.1v-10C164.3,30.2,164.1,29,163.7,28"/>
	<path clip-path="url(#SVGID_2_)" fill="#FFFFFF" d="M98.1,32.1c0-0.6,0.1-1.1,0.3-1.7c0.2-0.6,0.5-1.1,0.9-1.5
		c0.4-0.4,0.9-0.8,1.4-1c0.6-0.3,1.2-0.4,2-0.4c0.9,0,1.7,0.2,2.3,0.6c0.6,0.4,0.9,1,0.9,1.7c0,0.3-0.1,0.6-0.2,0.9
		c-0.1,0.3-0.4,0.5-0.8,0.8c-0.4,0.2-0.9,0.4-1.6,0.5c-0.7,0.1-1.6,0.2-2.7,0.2h-1.3C99,32.2,98.5,32.2,98.1,32.1 M100.3,35.2
		c2,0,3.6-0.1,4.9-0.4c1.3-0.3,2.3-0.6,3.1-1.1c0.8-0.5,1.3-1,1.6-1.7c0.3-0.7,0.5-1.4,0.5-2.2c0-0.8-0.2-1.5-0.5-2.2
		c-0.3-0.7-0.8-1.3-1.4-1.8c-0.6-0.5-1.4-0.9-2.3-1.2c-0.5-0.2-1.1-0.3-1.8-0.4c-0.5-0.1-1.1-0.1-1.7-0.1c-1.4,0-2.6,0.2-3.7,0.7
		c-1.1,0.4-2.1,1.1-2.9,1.9c-0.8,0.8-1.4,1.8-1.8,2.9c-0.4,1.1-0.7,2.4-0.7,3.8c0,1.5,0.2,2.8,0.7,4c0.5,1.1,1.1,2,2,2.8
		c0.8,0.7,1.8,1.3,3,1.6c1.1,0.4,2.4,0.5,3.7,0.5c1,0,1.8-0.1,2.6-0.2c0.8-0.1,1.5-0.3,2-0.4c0.6-0.1,1-0.3,1.4-0.4
		c0.3-0.1,0.5-0.2,0.6-0.3l-1.3-3.3c-0.2,0.1-0.7,0.2-1.4,0.5c-0.8,0.2-1.9,0.3-3.3,0.3s-2.6-0.3-3.5-1c-0.9-0.6-1.4-1.4-1.6-2.3H99
		C99.4,35.2,99.8,35.2,100.3,35.2"/>
</g>
</svg>
