<?xml version="1.0" encoding="utf-8"?>
<!-- Generator: Adobe Illustrator 18.0.0, SVG Export Plug-In . SVG Version: 6.00 Build 0)  -->
<!DOCTYPE svg PUBLIC "-//W3C//DTD SVG 1.1//EN" "http://www.w3.org/Graphics/SVG/1.1/DTD/svg11.dtd">
<svg version="1.1" id="Слой_1" xmlns="http://www.w3.org/2000/svg" xmlns:xlink="http://www.w3.org/1999/xlink" x="0px" y="0px"
	 viewBox="0 0 70 30" enable-background="new 0 0 70 30" xml:space="preserve">
<g>
	<defs>
		<rect id="SVGID_1_" x="-37.5" y="-5.4" width="110.2" height="38"/>
	</defs>
	<clipPath id="SVGID_2_">
		<use xlink:href="#SVGID_1_"  overflow="visible"/>
	</clipPath>
	<path clip-path="url(#SVGID_2_)" fill="none" stroke="#6B727B" stroke-miterlimit="10" d="M3.1,0.6c-0.3,0-2.8,0.1-2.8,2.8v23.4
		c0,0.3,0.1,2.8,2.8,2.8h63.6c0.3,0,2.8-0.1,2.8-2.8V3.4c0-0.3-0.1-2.8-2.8-2.8H3.1L3.1,0.6z"/>
</g>
<g>
	<path fill="#FFFFFF" d="M12,17.5c-0.1-0.2-0.2-0.4-0.3-0.7c-0.1-0.3-0.3-0.6-0.4-0.9c-0.2-0.3-0.3-0.7-0.5-1
		c-0.2-0.3-0.3-0.7-0.5-1s-0.3-0.6-0.4-0.8c-0.1-0.2-0.2-0.4-0.3-0.5c-0.1,0.8-0.2,1.7-0.2,2.7s-0.1,2-0.1,3.1H8.7
		c0.1-1.3,0.1-2.5,0.2-3.6c0.1-1.2,0.2-2.3,0.3-3.3h0.6c0.2,0.3,0.4,0.7,0.6,1.2c0.2,0.4,0.5,0.9,0.7,1.4c0.2,0.5,0.4,0.9,0.7,1.4
		c0.2,0.5,0.4,0.9,0.6,1.2c0.2-0.4,0.3-0.8,0.6-1.2c0.2-0.5,0.4-0.9,0.7-1.4c0.2-0.5,0.4-0.9,0.7-1.4c0.2-0.4,0.4-0.8,0.6-1.2h0.6
		c0.1,1.1,0.2,2.2,0.3,3.3c0.1,1.2,0.1,2.4,0.2,3.6h-0.7c0-1.1-0.1-2.1-0.1-3.1c-0.1-1-0.1-1.9-0.2-2.7c-0.1,0.1-0.1,0.3-0.2,0.5
		c-0.1,0.2-0.2,0.5-0.4,0.8s-0.3,0.6-0.5,1c-0.2,0.3-0.3,0.7-0.5,1c-0.2,0.3-0.3,0.6-0.4,0.9c-0.1,0.3-0.2,0.5-0.3,0.7H12z"/>
	<path fill="#FFFFFF" d="M17.7,18.5v-6.9h4v0.6h-3.3v2.4h3v0.6h-3v2.8H22v0.6H17.7z"/>
	<path fill="#FFFFFF" d="M28.1,18.5c-0.1-0.2-0.3-0.5-0.5-0.8s-0.4-0.6-0.6-1c-0.2-0.4-0.5-0.7-0.7-1.1s-0.5-0.7-0.8-1.1
		c-0.3-0.4-0.5-0.7-0.8-1c-0.2-0.3-0.5-0.6-0.7-0.8v5.8h-0.7v-6.9h0.5c0.3,0.4,0.7,0.8,1.1,1.3c0.4,0.5,0.8,1,1.1,1.5
		c0.4,0.5,0.7,1,1,1.5c0.3,0.5,0.6,0.9,0.8,1.3v-5.6h0.7v6.9H28.1z"/>
	<path fill="#FFFFFF" d="M33.1,18.7c-0.5,0-0.9-0.1-1.2-0.2c-0.3-0.1-0.6-0.3-0.8-0.6c-0.2-0.2-0.3-0.5-0.4-0.9s-0.1-0.7-0.1-1.1
		v-4.4h0.7v4.3c0,0.4,0,0.7,0.1,1c0.1,0.3,0.2,0.5,0.4,0.7c0.2,0.2,0.4,0.3,0.6,0.4s0.5,0.1,0.8,0.1c0.3,0,0.5,0,0.8-0.1
		s0.4-0.2,0.6-0.4c0.2-0.2,0.3-0.4,0.4-0.7c0.1-0.3,0.1-0.6,0.1-1v-4.3h0.7v4.4c0,0.4,0,0.7-0.1,1.1s-0.2,0.6-0.4,0.9
		c-0.2,0.2-0.5,0.4-0.8,0.6C34,18.6,33.6,18.7,33.1,18.7z"/>
</g>
<line fill="none" stroke="#FFFFFF" stroke-width="2" stroke-linecap="round" x1="61.8" y1="8.9" x2="45.8" y2="8.9"/>
<line fill="none" stroke="#FFFFFF" stroke-width="2" stroke-linecap="round" x1="61.8" y1="15.1" x2="45.8" y2="15.1"/>
<line fill="none" stroke="#FFFFFF" stroke-width="2" stroke-linecap="round" x1="61.8" y1="21.3" x2="45.8" y2="21.3"/>
</svg>
