<?xml version="1.0" encoding="utf-8"?>
<!-- Generator: Adobe Illustrator 18.0.0, SVG Export Plug-In . SVG Version: 6.00 Build 0)  -->
<!DOCTYPE svg PUBLIC "-//W3C//DTD SVG 1.1//EN" "http://www.w3.org/Graphics/SVG/1.1/DTD/svg11.dtd">
<svg version="1.1" id="Слой_1" xmlns="http://www.w3.org/2000/svg" xmlns:xlink="http://www.w3.org/1999/xlink" x="0px" y="0px"
	 viewBox="0 0 23 23" enable-background="new 0 0 23 23" xml:space="preserve">
<g>
	<defs>
		<rect id="SVGID_1_" x="1.8" y="1.7" width="20.3" height="20.3"/>
	</defs>
	<clipPath id="SVGID_2_">
		<use xlink:href="#SVGID_1_"  overflow="visible"/>
	</clipPath>
	
		<path clip-path="url(#SVGID_2_)" fill="none" stroke="#868686" stroke-width="1.072" stroke-linecap="round" stroke-linejoin="round" stroke-miterlimit="10" d="
		M17.9,8.5h1.4c0.6,0,1.1,0.5,1.1,1.1v9.6c0,0.6-0.5,1.1-1.1,1.1H4.5c-0.6,0-1.1-0.5-1.1-1.1V9.6c0-0.6,0.5-1.1,1.1-1.1h1.1"/>
</g>
<polyline fill="none" stroke="#868686" stroke-width="1.072" stroke-linecap="round" stroke-linejoin="round" stroke-miterlimit="10" points="
	4,8.8 11.9,15.6 19.8,8.8 "/>
<line fill="none" stroke="#868686" stroke-width="1.072" stroke-linecap="round" stroke-linejoin="round" stroke-miterlimit="10" x1="5.3" y1="18.4" x2="8.7" y2="15"/>
<line fill="none" stroke="#868686" stroke-width="1.072" stroke-linecap="round" stroke-linejoin="round" stroke-miterlimit="10" x1="18.4" y1="18.4" x2="15" y2="15"/>
<line fill="none" stroke="#868686" stroke-width="1.072" stroke-linecap="round" stroke-linejoin="round" stroke-miterlimit="10" x1="8.1" y1="6.3" x2="15.7" y2="6.3"/>
<line fill="none" stroke="#868686" stroke-width="1.072" stroke-linecap="round" stroke-linejoin="round" stroke-miterlimit="10" x1="8.1" y1="8.5" x2="15.7" y2="8.5"/>
<g>
	<defs>
		<rect id="SVGID_3_" x="1.8" y="1.7" width="20.3" height="20.3"/>
	</defs>
	<clipPath id="SVGID_4_">
		<use xlink:href="#SVGID_3_"  overflow="visible"/>
	</clipPath>
	
		<path clip-path="url(#SVGID_4_)" fill="none" stroke="#868686" stroke-width="1.072" stroke-linecap="round" stroke-linejoin="round" stroke-miterlimit="10" d="
		M5.9,10.5V4.3c0-0.5,0.5-1,1-1h9.8c0.6,0,1,0.5,1,1v6.2"/>
</g>
</svg>
