<?xml version="1.0" encoding="utf-8"?>
<!-- Generator: Adobe Illustrator 18.0.0, SVG Export Plug-In . SVG Version: 6.00 Build 0)  -->
<!DOCTYPE svg PUBLIC "-//W3C//DTD SVG 1.1//EN" "http://www.w3.org/Graphics/SVG/1.1/DTD/svg11.dtd">
<svg version="1.1" id="Слой_1" xmlns="http://www.w3.org/2000/svg" xmlns:xlink="http://www.w3.org/1999/xlink" x="0px" y="0px"
	 viewBox="0 0 23 23" enable-background="new 0 0 23 23" xml:space="preserve">
<g>
	<defs>
		<rect id="SVGID_1_" x="3" y="1.8" width="17.7" height="20.2"/>
	</defs>
	<clipPath id="SVGID_2_">
		<use xlink:href="#SVGID_1_"  overflow="visible"/>
	</clipPath>
	
		<path clip-path="url(#SVGID_2_)" fill="none" stroke="#868686" stroke-width="0.888" stroke-linecap="round" stroke-linejoin="round" stroke-miterlimit="10" d="
		M10.6,4.5c0,0-4.8,0.5-4.5,6.1c0.3,5.5,0.1,6.2-1.8,7.5"/>
	
		<line clip-path="url(#SVGID_2_)" fill="none" stroke="#868686" stroke-width="0.888" stroke-linecap="round" stroke-linejoin="round" stroke-miterlimit="10" x1="4.3" y1="18.1" x2="19.3" y2="18.1"/>
	
		<path clip-path="url(#SVGID_2_)" fill="none" stroke="#868686" stroke-width="0.888" stroke-linecap="round" stroke-linejoin="round" stroke-miterlimit="10" d="
		M13.2,19.5c0,0.7-0.6,1.2-1.3,1.2c-0.7,0-1.3-0.6-1.3-1.3"/>
	
		<path clip-path="url(#SVGID_2_)" fill="none" stroke="#868686" stroke-width="0.888" stroke-linecap="round" stroke-linejoin="round" stroke-miterlimit="10" d="
		M10.8,3.6c0.6-0.5,1.5-0.5,2,0"/>
	
		<path clip-path="url(#SVGID_2_)" fill="none" stroke="#868686" stroke-width="0.888" stroke-linecap="round" stroke-linejoin="round" stroke-miterlimit="10" d="
		M13,4.5c0,0,4.8,0.5,4.5,6c-0.3,5.5-0.1,6.2,1.8,7.5"/>
</g>
</svg>
