<?xml version="1.0" encoding="utf-8"?>
<!-- Generator: Adobe Illustrator 18.0.0, SVG Export Plug-In . SVG Version: 6.00 Build 0)  -->
<!DOCTYPE svg PUBLIC "-//W3C//DTD SVG 1.1//EN" "http://www.w3.org/Graphics/SVG/1.1/DTD/svg11.dtd">
<svg version="1.1" id="Слой_1" xmlns="http://www.w3.org/2000/svg" xmlns:xlink="http://www.w3.org/1999/xlink" x="0px" y="0px"
	 viewBox="0 0 23 23" enable-background="new 0 0 23 23" xml:space="preserve">
<g>
	<defs>
		<rect id="SVGID_1_" x="5" y="1.6" width="12.5" height="19.1"/>
	</defs>
	<clipPath id="SVGID_2_">
		<use xlink:href="#SVGID_1_"  overflow="visible"/>
	</clipPath>
	
		<path clip-path="url(#SVGID_2_)" fill="none" stroke="#868686" stroke-width="0.95" stroke-linecap="round" stroke-linejoin="round" stroke-miterlimit="10" d="
		M8.2,5.6h6.1c1,0,1.8,0.8,1.8,1.8v10.1c0,1-0.8,1.8-1.8,1.8H8.2c-1,0-1.8-0.8-1.8-1.8V7.4C6.4,6.4,7.2,5.6,8.2,5.6z"/>
</g>
<line fill="none" stroke="#868686" stroke-width="0.95" stroke-linecap="round" stroke-linejoin="round" stroke-miterlimit="10" x1="8.4" y1="3.1" x2="8.4" y2="5.4"/>
<line fill="none" stroke="#868686" stroke-width="0.95" stroke-linecap="round" stroke-linejoin="round" stroke-miterlimit="10" x1="14" y1="3.1" x2="14" y2="5.4"/>
<g>
	<defs>
		<rect id="SVGID_3_" x="5" y="1.6" width="12.5" height="19.1"/>
	</defs>
	<clipPath id="SVGID_4_">
		<use xlink:href="#SVGID_3_"  overflow="visible"/>
	</clipPath>
	
		<line clip-path="url(#SVGID_4_)" fill="none" stroke="#868686" stroke-width="0.95" stroke-linecap="round" stroke-linejoin="round" stroke-miterlimit="10" x1="6.5" y1="16.7" x2="16.1" y2="16.7"/>
	
		<line clip-path="url(#SVGID_4_)" fill="none" stroke="#868686" stroke-width="0.95" stroke-linecap="round" stroke-linejoin="round" stroke-miterlimit="10" x1="6.4" y1="8.5" x2="16.1" y2="8.5"/>
</g>
<line fill="none" stroke="#868686" stroke-width="0.95" stroke-linecap="round" stroke-linejoin="round" stroke-miterlimit="10" x1="8.4" y1="3.1" x2="10" y2="3.1"/>
<line fill="none" stroke="#868686" stroke-width="0.95" stroke-linecap="round" stroke-linejoin="round" stroke-miterlimit="10" x1="12.3" y1="3.1" x2="14" y2="3.1"/>
</svg>
