<?xml version="1.0" encoding="utf-8"?>
<!-- Generator: Adobe Illustrator 18.0.0, SVG Export Plug-In . SVG Version: 6.00 Build 0)  -->
<!DOCTYPE svg PUBLIC "-//W3C//DTD SVG 1.1//EN" "http://www.w3.org/Graphics/SVG/1.1/DTD/svg11.dtd">
<svg version="1.1" id="Слой_1" xmlns="http://www.w3.org/2000/svg" xmlns:xlink="http://www.w3.org/1999/xlink" x="0px" y="0px"
	 viewBox="0 0 23 23" enable-background="new 0 0 23 23" xml:space="preserve">
<g>
	<defs>
		<rect id="SVGID_1_" x="1" y="0.9" width="20.4" height="22.1"/>
	</defs>
	<clipPath id="SVGID_2_">
		<use xlink:href="#SVGID_1_"  overflow="visible"/>
	</clipPath>
	
		<path clip-path="url(#SVGID_2_)" fill="none" stroke="#868686" stroke-linecap="round" stroke-linejoin="round" stroke-miterlimit="10" d="
		M2.5,18.2C3,14.3,3.5,10.4,4,6.5c0.1-0.6,0.1-0.7,0.8-0.7h1.4c0.5,0,0.6,0.1,0.7,0.7L8,13.5h10.7c0.9,0,1.1,0.2,1.1,1.2
		c0,1.9,0,3.8,0.1,5.7c0,0.7-0.4,1-1.2,1H2.5"/>
	
		<path clip-path="url(#SVGID_2_)" fill="none" stroke="#868686" stroke-linecap="round" stroke-linejoin="round" stroke-miterlimit="10" d="
		M5.4,4.5c0,0,1.3-2.1,3.8-0.8C11.7,5,12,5.1,13,4.5"/>
</g>
<rect x="9.7" y="16.9" fill="none" stroke="#868686" stroke-linecap="round" stroke-linejoin="round" stroke-miterlimit="10" width="3" height="1.7"/>
<rect x="14.4" y="16.9" fill="none" stroke="#868686" stroke-linecap="round" stroke-linejoin="round" stroke-miterlimit="10" width="3" height="1.7"/>
</svg>
