<?xml version="1.0" encoding="utf-8"?>
<!-- Generator: Adobe Illustrator 18.0.0, SVG Export Plug-In . SVG Version: 6.00 Build 0)  -->
<!DOCTYPE svg PUBLIC "-//W3C//DTD SVG 1.1//EN" "http://www.w3.org/Graphics/SVG/1.1/DTD/svg11.dtd">
<svg version="1.1" id="Слой_1" xmlns="http://www.w3.org/2000/svg" xmlns:xlink="http://www.w3.org/1999/xlink" x="0px" y="0px"
	 viewBox="0 0 29 30" enable-background="new 0 0 29 30" xml:space="preserve">
<g>
	<defs>
		<rect id="SVGID_1_" y="-0.3" width="29.4" height="30.3"/>
	</defs>
	<clipPath id="SVGID_2_">
		<use xlink:href="#SVGID_1_"  overflow="visible"/>
	</clipPath>
	
		<path clip-path="url(#SVGID_2_)" fill="none" stroke="#868686" stroke-width="1.12" stroke-linecap="round" stroke-linejoin="round" stroke-miterlimit="10" d="
		M6.6,25.7c0,0.1,0,0.1,0,0.2c0,1.4-1.2,2.6-2.6,2.6s-2.6-1.2-2.6-2.6c0-0.2,0-0.5,0.1-0.7"/>
	
		<line clip-path="url(#SVGID_2_)" fill="none" stroke="#868686" stroke-width="1.12" stroke-linecap="round" stroke-linejoin="round" stroke-miterlimit="10" x1="1.5" y1="25.2" x2="6.5" y2="25.2"/>
	
		<line clip-path="url(#SVGID_2_)" fill="none" stroke="#868686" stroke-width="1.12" stroke-linecap="round" stroke-linejoin="round" stroke-miterlimit="10" x1="4.5" y1="28.5" x2="25.3" y2="28.5"/>
</g>
<line fill="none" stroke="#868686" stroke-width="1.12" stroke-linecap="round" stroke-linejoin="round" stroke-miterlimit="10" x1="11.7" y1="8.7" x2="23.7" y2="8.7"/>
<line fill="none" stroke="#868686" stroke-width="1.12" stroke-linecap="round" stroke-linejoin="round" stroke-miterlimit="10" x1="11.7" y1="13.7" x2="23.7" y2="13.7"/>
<line fill="none" stroke="#868686" stroke-width="1.12" stroke-linecap="round" stroke-linejoin="round" stroke-miterlimit="10" x1="11.7" y1="18.9" x2="23.7" y2="18.9"/>
<g>
	<defs>
		<rect id="SVGID_3_" y="-0.3" width="29.4" height="30.3"/>
	</defs>
	<clipPath id="SVGID_4_">
		<use xlink:href="#SVGID_3_"  overflow="visible"/>
	</clipPath>
	
		<path clip-path="url(#SVGID_4_)" fill="none" stroke="#868686" stroke-width="1.12" stroke-linecap="round" stroke-linejoin="round" stroke-miterlimit="10" d="
		M25.5,28.5c2.1,0.2,2.6-1.5,2.6-2.3V2.6c0-0.8-0.7-1.5-1.5-1.5H8.2c-0.8,0-1.5,0.7-1.5,1.5v23.2"/>
</g>
</svg>
