<?xml version="1.0" encoding="utf-8"?>
<!-- Generator: Adobe Illustrator 18.0.0, SVG Export Plug-In . SVG Version: 6.00 Build 0)  -->
<!DOCTYPE svg PUBLIC "-//W3C//DTD SVG 1.1//EN" "http://www.w3.org/Graphics/SVG/1.1/DTD/svg11.dtd">
<svg version="1.1" id="Слой_1" xmlns="http://www.w3.org/2000/svg" xmlns:xlink="http://www.w3.org/1999/xlink" x="0px" y="0px"
	 viewBox="0 0 27 32" enable-background="new 0 0 27 32" xml:space="preserve">
<g>
	<defs>
		<rect id="SVGID_1_" y="-0.5" width="27.2" height="32.3"/>
	</defs>
	<clipPath id="SVGID_2_">
		<use xlink:href="#SVGID_1_"  overflow="visible"/>
	</clipPath>
	
		<path clip-path="url(#SVGID_2_)" fill="none" stroke="#868686" stroke-width="1.155" stroke-linecap="round" stroke-linejoin="round" stroke-miterlimit="10" d="
		M13.3,5.8c3.9,0,7.2,3.1,7.1,7c-0.1,6.2-3.6,5.3-3.9,11h-3.2h-3c0-5.3-3.9-4.8-4.1-11C6,9,9.3,5.8,13.3,5.8z"/>
	
		<path clip-path="url(#SVGID_2_)" fill="none" stroke="#868686" stroke-width="1.155" stroke-linecap="round" stroke-linejoin="round" stroke-miterlimit="10" d="
		M11,26.1h4.7c0.4,0,0.7,0.3,0.7,0.7v2.9c0,0.4-0.3,0.7-0.7,0.7H11c-0.4,0-0.7-0.3-0.7-0.7v-2.9C10.3,26.5,10.6,26.1,11,26.1z"/>
</g>
<line fill="none" stroke="#868686" stroke-width="1.155" stroke-linecap="round" stroke-linejoin="round" stroke-miterlimit="10" x1="11.9" y1="18.6" x2="12.9" y2="23.6"/>
<line fill="none" stroke="#868686" stroke-width="1.155" stroke-linecap="round" stroke-linejoin="round" stroke-miterlimit="10" x1="14.7" y1="18.6" x2="13.6" y2="23.6"/>
<line fill="none" stroke="#868686" stroke-width="1.155" stroke-linecap="round" stroke-linejoin="round" stroke-miterlimit="10" x1="3.9" y1="4.5" x2="6.2" y2="6.3"/>
<g>
	<defs>
		<rect id="SVGID_3_" y="-0.5" width="27.2" height="32.3"/>
	</defs>
	<clipPath id="SVGID_4_">
		<use xlink:href="#SVGID_3_"  overflow="visible"/>
	</clipPath>
	
		<line clip-path="url(#SVGID_4_)" fill="none" stroke="#868686" stroke-width="1.155" stroke-linecap="round" stroke-linejoin="round" stroke-miterlimit="10" x1="25.8" y1="13.2" x2="23.4" y2="13.2"/>
</g>
<line fill="none" stroke="#868686" stroke-width="1.155" stroke-linecap="round" stroke-linejoin="round" stroke-miterlimit="10" x1="23.5" y1="4.8" x2="21.5" y2="6.3"/>
<g>
	<defs>
		<rect id="SVGID_5_" y="-0.5" width="27.2" height="32.3"/>
	</defs>
	<clipPath id="SVGID_6_">
		<use xlink:href="#SVGID_5_"  overflow="visible"/>
	</clipPath>
	
		<line clip-path="url(#SVGID_6_)" fill="none" stroke="#868686" stroke-width="1.155" stroke-linecap="round" stroke-linejoin="round" stroke-miterlimit="10" x1="13.2" y1="0.9" x2="13.2" y2="3.4"/>
	
		<line clip-path="url(#SVGID_6_)" fill="none" stroke="#868686" stroke-width="1.155" stroke-linecap="round" stroke-linejoin="round" stroke-miterlimit="10" x1="3.8" y1="13.2" x2="1.4" y2="13.2"/>
</g>
</svg>
