<?xml version="1.0" encoding="utf-8"?>
<!-- Generator: Adobe Illustrator 18.0.0, SVG Export Plug-In . SVG Version: 6.00 Build 0)  -->
<!DOCTYPE svg PUBLIC "-//W3C//DTD SVG 1.1//EN" "http://www.w3.org/Graphics/SVG/1.1/DTD/svg11.dtd">
<svg version="1.1" id="Слой_1" xmlns="http://www.w3.org/2000/svg" xmlns:xlink="http://www.w3.org/1999/xlink" x="0px" y="0px"
	 viewBox="0 0 289 156" enable-background="new 0 0 289 156" xml:space="preserve">
<rect y="27.7" fill="#DFEDF7" width="233.9" height="101.5"/>
<text transform="matrix(1 0 0 1 0 144.6309)"><tspan x="0" y="0" font-family="'Ubuntu'" font-size="12">Jan</tspan><tspan x="18.8" y="0" font-family="'Ubuntu'" font-size="12">      </tspan><tspan x="39.1" y="0" font-family="'Ubuntu'" font-size="12">Mar</tspan><tspan x="60.1" y="0" font-family="'Ubuntu'" font-size="12">      </tspan><tspan x="80.3" y="0" font-family="'Ubuntu'" font-size="12">M</tspan><tspan x="90.7" y="0" font-family="'Ubuntu'" font-size="12">a</tspan><tspan x="96.6" y="0" font-family="'Ubuntu'" font-size="12">y</tspan><tspan x="102.5" y="0" font-family="'Ubuntu'" font-size="12">      </tspan><tspan x="122.7" y="0" font-family="'Ubuntu'" font-size="12">J</tspan><tspan x="128.6" y="0" font-family="'Ubuntu'" font-size="12">ul</tspan><tspan x="138.5" y="0" font-family="'Ubuntu'" font-size="12">      </tspan><tspan x="158.8" y="0" font-family="'Ubuntu'" font-size="12">Sep</tspan><tspan x="178.6" y="0" font-family="'Ubuntu'" font-size="12">      </tspan><tspan x="198.8" y="0" font-family="'Ubuntu'" font-size="12">N</tspan><tspan x="207.5" y="0" font-family="'Ubuntu'" font-size="12">o</tspan><tspan x="214.2" y="0" font-family="'Ubuntu'" font-size="12">v</tspan></text>
<text transform="matrix(1 0 0 1 96.6592 21.6509)"><tspan x="0" y="0" font-family="'Ubuntu'" font-size="14.5981">145 </tspan><tspan x="27.5" y="0" font-family="'Ubuntu'" font-size="14.5981">€</tspan></text>
<line fill="none" stroke="#1F4D84" stroke-miterlimit="10" x1="0" y1="28.6" x2="232.8" y2="28.6"/>
<polygon fill="#1F4D84" points="228.5,33.9 227.6,32.9 232.3,28.6 227.6,24.3 228.5,23.3 234.2,28.6 "/>
</svg>
