<?xml version="1.0" encoding="utf-8"?>
<!-- Generator: Adobe Illustrator 16.0.0, SVG Export Plug-In . SVG Version: 6.00 Build 0)  -->
<!DOCTYPE svg PUBLIC "-//W3C//DTD SVG 1.1//EN" "http://www.w3.org/Graphics/SVG/1.1/DTD/svg11.dtd">
<svg version="1.1" id="Layer_1" xmlns="http://www.w3.org/2000/svg" xmlns:xlink="http://www.w3.org/1999/xlink" x="0px" y="0px"
	 width="64px" height="60px" viewBox="0 0 64 60" enable-background="new 0 0 64 60" xml:space="preserve">
<line fill="none" stroke="#FFFFFF" stroke-miterlimit="10" x1="4.19" y1="12.241" x2="4.19" y2="33.845"/>
<g>
	<defs>
		<rect id="SVGID_1_" y="0.049" width="63.656" height="59.951"/>
	</defs>
	<clipPath id="SVGID_2_">
		<use xlink:href="#SVGID_1_"  overflow="visible"/>
	</clipPath>
	
		<path clip-path="url(#SVGID_2_)" fill="none" stroke="#FFFFFF" stroke-width="2.381" stroke-linecap="round" stroke-linejoin="round" stroke-miterlimit="10" d="
		M3.307,19.322h23.097 M3.307,11.904h23.097 M4.189,11.904c0-5.892,4.775-10.665,10.666-10.665s10.666,4.773,10.666,10.665
		 M25.522,31.155V12.241 M4.19,12.241v21.604l6,9.812v6.5"/>
</g>
<line fill="none" stroke="#FFFFFF" stroke-miterlimit="10" x1="59.464" y1="12.241" x2="59.464" y2="33.845"/>
<g>
	<defs>
		<rect id="SVGID_3_" y="0.049" width="63.656" height="59.951"/>
	</defs>
	<clipPath id="SVGID_4_">
		<use xlink:href="#SVGID_3_"  overflow="visible"/>
	</clipPath>
	
		<path clip-path="url(#SVGID_4_)" fill="none" stroke="#FFFFFF" stroke-width="2.381" stroke-linecap="round" stroke-linejoin="round" stroke-miterlimit="10" d="
		M49.169,58.49V45.531c0-5.501-4.5-10.001-10-10.001H25.624c-5.5,0-10.001,4.5-10.001,10.001V58.49 M60.348,19.322H37.252
		 M60.348,11.904H37.252 M59.465,11.904c0-5.892-4.775-10.665-10.666-10.665S38.134,6.012,38.134,11.904 M38.133,31.155V12.241
		 M59.464,12.241v21.604l-6,9.812v6.5"/>
	
		<polyline clip-path="url(#SVGID_4_)" fill="none" stroke="#FFFFFF" stroke-width="2.514" stroke-linecap="round" stroke-linejoin="round" stroke-miterlimit="10" points="
		36.637,57.882 36.637,43.711 27.02,43.711 27.02,57.882 	"/>
	
		<line clip-path="url(#SVGID_4_)" fill="none" stroke="#FFFFFF" stroke-width="2.381" stroke-linecap="round" stroke-linejoin="round" stroke-miterlimit="10" x1="1.19" y1="58.81" x2="62.466" y2="58.81"/>
</g>
</svg>
