<?xml version="1.0" encoding="utf-8"?>
<!-- Generator: Adobe Illustrator 16.0.0, SVG Export Plug-In . SVG Version: 6.00 Build 0)  -->
<!DOCTYPE svg PUBLIC "-//W3C//DTD SVG 1.1//EN" "http://www.w3.org/Graphics/SVG/1.1/DTD/svg11.dtd">
<svg version="1.1" id="Layer_1" xmlns="http://www.w3.org/2000/svg" xmlns:xlink="http://www.w3.org/1999/xlink" x="0px" y="0px"
	 width="58px" height="61px" viewBox="0 0 58 61" enable-background="new 0 0 58 61" xml:space="preserve">
<g>
	<defs>
		<rect id="SVGID_1_" y="0.409" width="57.858" height="60.591"/>
	</defs>
	<clipPath id="SVGID_2_">
		<use xlink:href="#SVGID_1_"  overflow="visible"/>
	</clipPath>
	
		<path clip-path="url(#SVGID_2_)" fill="none" stroke="#FFFFFF" stroke-width="2.514" stroke-linecap="round" stroke-linejoin="round" stroke-miterlimit="10" d="
		M1.3,49.17c1.596-12.422,3.234-24.887,4.831-37.353C6.39,9.876,6.432,9.488,8.545,9.575h4.616c1.638,0.042,1.899,0.301,2.158,2.242
		l3.364,22.517h34.333c2.934,0.086,3.409,0.646,3.365,3.882c0.088,6.125,0.174,12.206,0.217,18.289
		c0.087,2.155-1.381,3.32-3.754,3.233H1.257"/>
	
		<path clip-path="url(#SVGID_2_)" fill="none" stroke="#FFFFFF" stroke-width="2.514" stroke-linecap="round" stroke-linejoin="round" stroke-miterlimit="10" d="
		M10.443,5.563c0,0,4.055-6.686,12.035-2.544c7.981,4.14,9.103,4.4,12.293,2.415"/>
</g>
<rect x="24.247" y="44.945" fill="none" stroke="#FFFFFF" stroke-width="2.514" stroke-linecap="round" stroke-linejoin="round" stroke-miterlimit="10" width="9.619" height="5.562"/>
<rect x="39.129" y="44.945" fill="none" stroke="#FFFFFF" stroke-width="2.514" stroke-linecap="round" stroke-linejoin="round" stroke-miterlimit="10" width="9.618" height="5.562"/>
</svg>
