<?xml version="1.0" encoding="utf-8"?>
<!-- Generator: Adobe Illustrator 18.0.0, SVG Export Plug-In . SVG Version: 6.00 Build 0)  -->
<!DOCTYPE svg PUBLIC "-//W3C//DTD SVG 1.1//EN" "http://www.w3.org/Graphics/SVG/1.1/DTD/svg11.dtd">
<svg version="1.1" id="Слой_1" xmlns="http://www.w3.org/2000/svg" xmlns:xlink="http://www.w3.org/1999/xlink" x="0px" y="0px"
	 viewBox="0 0 25 25" enable-background="new 0 0 25 25" xml:space="preserve">
<g>
	<defs>
		<rect id="SVGID_1_" y="1.2" width="24.5" height="22.8"/>
	</defs>
	<clipPath id="SVGID_2_">
		<use xlink:href="#SVGID_1_"  overflow="visible"/>
	</clipPath>
	<path clip-path="url(#SVGID_2_)" fill="#FFFFFF" d="M6.9,14.3c0.7,0,1.3-0.6,1.3-1.3c0-0.7-0.6-1.3-1.3-1.3c-0.7,0-1.3,0.6-1.3,1.3
		C5.6,13.8,6.2,14.3,6.9,14.3"/>
	
		<path clip-path="url(#SVGID_2_)" fill="none" stroke="#FFFFFF" stroke-width="0.95" stroke-linecap="round" stroke-linejoin="round" stroke-miterlimit="10" d="
		M6.9,14.3c0.7,0,1.3-0.6,1.3-1.3c0-0.7-0.6-1.3-1.3-1.3c-0.7,0-1.3,0.6-1.3,1.3C5.6,13.8,6.2,14.3,6.9,14.3z"/>
	<path clip-path="url(#SVGID_2_)" fill="#FFFFFF" d="M11.1,14.3c0.7,0,1.3-0.6,1.3-1.3c0-0.7-0.6-1.3-1.3-1.3
		c-0.7,0-1.3,0.6-1.3,1.3C9.8,13.8,10.4,14.3,11.1,14.3"/>
	
		<path clip-path="url(#SVGID_2_)" fill="none" stroke="#FFFFFF" stroke-width="0.95" stroke-linecap="round" stroke-linejoin="round" stroke-miterlimit="10" d="
		M11.1,14.3c0.7,0,1.3-0.6,1.3-1.3c0-0.7-0.6-1.3-1.3-1.3c-0.7,0-1.3,0.6-1.3,1.3C9.8,13.8,10.4,14.3,11.1,14.3z"/>
	<path clip-path="url(#SVGID_2_)" fill="#FFFFFF" d="M15.4,14.3c0.7,0,1.3-0.6,1.3-1.3c0-0.7-0.6-1.3-1.3-1.3
		c-0.7,0-1.3,0.6-1.3,1.3C14.1,13.8,14.7,14.3,15.4,14.3"/>
	
		<path clip-path="url(#SVGID_2_)" fill="none" stroke="#FFFFFF" stroke-width="0.95" stroke-linecap="round" stroke-linejoin="round" stroke-miterlimit="10" d="
		M15.4,14.3c0.7,0,1.3-0.6,1.3-1.3c0-0.7-0.6-1.3-1.3-1.3c-0.7,0-1.3,0.6-1.3,1.3C14.1,13.8,14.7,14.3,15.4,14.3z"/>
	
		<path clip-path="url(#SVGID_2_)" fill="none" stroke="#FFFFFF" stroke-width="0.95" stroke-linecap="round" stroke-linejoin="round" stroke-miterlimit="10" d="
		M17.1,21.1c-1.7,1.2-3.7,1.8-5.7,1.8c-5.7,0-10.3-4.6-10.3-10.3c0-5.7,4.6-10.3,10.3-10.3c5.7,0,10.3,4.6,10.3,10.3
		c0,1.3-0.2,2.5-0.7,3.7"/>
	
		<path clip-path="url(#SVGID_2_)" fill="none" stroke="#FFFFFF" stroke-width="0.95" stroke-linecap="round" stroke-linejoin="round" stroke-miterlimit="10" d="
		M17.1,21.1c1.6,0.3,3.3,0.7,4.9,1c0.9,0.2,1.3-0.2,1-1L21,16.3"/>
</g>
</svg>
