<?xml version="1.0" encoding="utf-8"?>
<!-- Generator: Adobe Illustrator 18.0.0, SVG Export Plug-In . SVG Version: 6.00 Build 0)  -->
<!DOCTYPE svg PUBLIC "-//W3C//DTD SVG 1.1//EN" "http://www.w3.org/Graphics/SVG/1.1/DTD/svg11.dtd">
<svg version="1.1" id="Слой_1" xmlns="http://www.w3.org/2000/svg" xmlns:xlink="http://www.w3.org/1999/xlink" x="0px" y="0px"
	 viewBox="0 0 39 39" enable-background="new 0 0 39 39" xml:space="preserve">
<g>
	<defs>
		<rect id="SVGID_1_" y="0.4" width="38.6" height="38.6"/>
	</defs>
	<clipPath id="SVGID_2_">
		<use xlink:href="#SVGID_1_"  overflow="visible"/>
	</clipPath>
	<g clip-path="url(#SVGID_2_)">
		<defs>
			<rect id="SVGID_3_" y="0.4" width="38.6" height="38.6"/>
		</defs>
		<clipPath id="SVGID_4_">
			<use xlink:href="#SVGID_3_"  overflow="visible"/>
		</clipPath>
		<g opacity="0.5" clip-path="url(#SVGID_4_)">
			<g>
				<defs>
					<rect id="SVGID_5_" x="-17" y="-12.6" width="72.6" height="52.6"/>
				</defs>
				<clipPath id="SVGID_6_">
					<use xlink:href="#SVGID_5_"  overflow="visible"/>
				</clipPath>
				<path clip-path="url(#SVGID_6_)" fill="#FFFFFF" d="M19.3,36.7c-9.4,0-17-7.6-17-17c0-9.4,7.6-17,17-17c9.4,0,17,7.6,17,17
					C36.3,29.1,28.7,36.7,19.3,36.7 M19.3,0.4C8.6,0.4,0,9,0,19.7C0,30.4,8.6,39,19.3,39c10.7,0,19.3-8.6,19.3-19.3
					C38.6,9,30,0.4,19.3,0.4"/>
				<polygon clip-path="url(#SVGID_6_)" fill="#FFFFFF" points="28.8,25 19.3,15 9.8,25 8.5,23.8 19.3,12.3 30.2,23.8 				"/>
			</g>
		</g>
	</g>
</g>
</svg>
