<?xml version="1.0" encoding="utf-8"?>
<!-- Generator: Adobe Illustrator 18.0.0, SVG Export Plug-In . SVG Version: 6.00 Build 0)  -->
<!DOCTYPE svg PUBLIC "-//W3C//DTD SVG 1.1//EN" "http://www.w3.org/Graphics/SVG/1.1/DTD/svg11.dtd">
<svg version="1.1" id="Слой_1" xmlns="http://www.w3.org/2000/svg" xmlns:xlink="http://www.w3.org/1999/xlink" x="0px" y="0px"
	 viewBox="0 0 18 18" enable-background="new 0 0 18 18" xml:space="preserve">
<path fill="#FFFFFF" d="M7.6,13c-2.9,0-5.3-2.4-5.3-5.3s2.4-5.3,5.3-5.3s5.3,2.4,5.3,5.3S10.5,13,7.6,13 M7.6,0.2
	C3.4,0.2,0,3.6,0,7.8c0,4.2,3.4,7.6,7.6,7.6s7.6-3.4,7.6-7.6C15.2,3.6,11.8,0.2,7.6,0.2"/>
<rect y="0.2" fill="none" width="17.7" height="17.8"/>
<path fill="#FFFFFF" d="M15.8,18c-0.5,0-1-0.2-1.3-0.6l-3.2-3.2c-0.7-0.7-0.7-1.9,0-2.7c0.7-0.7,1.9-0.7,2.7,0l3.2,3.2
	c0.7,0.7,0.7,1.9,0,2.7C16.7,17.8,16.3,18,15.8,18"/>
</svg>
