<?xml version="1.0" encoding="utf-8"?>
<!-- Generator: Adobe Illustrator 18.0.0, SVG Export Plug-In . SVG Version: 6.00 Build 0)  -->
<!DOCTYPE svg PUBLIC "-//W3C//DTD SVG 1.1//EN" "http://www.w3.org/Graphics/SVG/1.1/DTD/svg11.dtd">
<svg version="1.1" id="Слой_1" xmlns="http://www.w3.org/2000/svg" xmlns:xlink="http://www.w3.org/1999/xlink" x="0px" y="0px"
	 viewBox="0 0 28 25" enable-background="new 0 0 28 25" xml:space="preserve">
<g>
	<defs>
		<rect id="SVGID_1_" y="5.8" width="27.4" height="19.2"/>
	</defs>
	<clipPath id="SVGID_2_">
		<use xlink:href="#SVGID_1_"  overflow="visible"/>
	</clipPath>
	<path clip-path="url(#SVGID_2_)" fill="#FFFFFF" d="M10.9,19.2v-7.7l7.4,3.8L10.9,19.2z M26,7.1c-1-0.8-1.3-1-3.3-1.1
		c-0.6,0-5.4-0.2-8.8-0.2c-3.2,0-7.9,0.2-9.3,0.2C3,6.1,2.4,6.2,1.6,6.9C0.3,8.1,0,10.3,0,13.7V17c0,3.9,0.5,5.9,1.4,6.6
		c1,0.8,1.6,0.9,2.3,1c0.3,0,2.1,0.4,10.1,0.4c5,0,9.3-0.2,9.7-0.3c0.7-0.1,1.7-0.2,2.5-1.1c1.1-1.3,1.4-3.5,1.4-6.6v-3.8
		C27.4,11.2,27.3,8.3,26,7.1"/>
</g>
</svg>
