<?xml version="1.0" encoding="utf-8"?>
<!-- Generator: Adobe Illustrator 16.0.0, SVG Export Plug-In . SVG Version: 6.00 Build 0)  -->
<!DOCTYPE svg PUBLIC "-//W3C//DTD SVG 1.1//EN" "http://www.w3.org/Graphics/SVG/1.1/DTD/svg11.dtd">
<svg version="1.1" id="Layer_1" xmlns="http://www.w3.org/2000/svg" xmlns:xlink="http://www.w3.org/1999/xlink" x="0px" y="0px"
	 width="73px" height="55px" viewBox="0 0 73 55" enable-background="new 0 0 73 55" xml:space="preserve">
<g>
	<defs>
		<rect id="SVGID_1_" y="0.282" width="72.208" height="54.718"/>
	</defs>
	<clipPath id="SVGID_2_">
		<use xlink:href="#SVGID_1_"  overflow="visible"/>
	</clipPath>
	
		<path clip-path="url(#SVGID_2_)" fill="none" stroke="#0974B7" stroke-width="2" stroke-linecap="round" stroke-linejoin="round" stroke-miterlimit="10" d="
		M19.833,7.403h4.685c2.82,0,5.095,2.33,5.095,5.116v11.969c0,2.833-2.275,5.163-5.095,5.163h-4.685c-2.82,0-5.095-2.33-5.095-5.163
		V12.52C14.737,9.733,17.012,7.403,19.833,7.403z M18.968,34.539c0,0-14.375,1.6-13.647,18.273 M1,54h70.208 M44.623,1.282h5.322
		c3.184,0,5.777,2.603,5.777,5.801v13.568c0,3.198-2.594,5.847-5.777,5.847h-5.322c-3.184,0-5.776-2.649-5.776-5.847V7.083
		C38.847,3.885,41.439,1.282,44.623,1.282z M50.9,32.026c0,0,16.285,1.827,15.466,20.74 M43.622,32.026
		c0,0-16.285,1.827-15.466,20.74"/>
</g>
</svg>
