<?xml version="1.0" encoding="utf-8"?>
<!-- Generator: Adobe Illustrator 16.0.0, SVG Export Plug-In . SVG Version: 6.00 Build 0)  -->
<!DOCTYPE svg PUBLIC "-//W3C//DTD SVG 1.1//EN" "http://www.w3.org/Graphics/SVG/1.1/DTD/svg11.dtd">
<svg version="1.1" id="Layer_1" xmlns="http://www.w3.org/2000/svg" xmlns:xlink="http://www.w3.org/1999/xlink" x="0px" y="0px"
	 width="75px" height="61px" viewBox="0 0 75 61" enable-background="new 0 0 75 61" xml:space="preserve">
<g>
	<defs>
		<rect id="SVGID_1_" y="0.25" width="74.253" height="60.75"/>
	</defs>
	<clipPath id="SVGID_2_">
		<use xlink:href="#SVGID_1_"  overflow="visible"/>
	</clipPath>
	
		<path clip-path="url(#SVGID_2_)" fill="none" stroke="#FFFFFF" stroke-width="2.381" stroke-linecap="round" stroke-linejoin="round" stroke-miterlimit="10" d="
		M1.19,59.81h71.872 M10.122,59.045c0.042-3.123,0.042-29.18,0-30.25c0-1.111,0.294-2.224,1.135-3.079L33.93,2.659
		c1.596-1.625,4.288-1.625,5.888,0l22.88,23.272c0.76,0.811,1.221,1.838,1.221,2.864v30.678 M53.953,35.363
		c0,0-15.215-0.392-15.166,12.629 M53.953,35.85c0,0-2.048,15.069-14.922,12.874 M20.307,35.85c0,0,15.165-0.438,15.115,12.63
		 M20.307,35.85c0,0,2,15.069,14.873,12.874 M36.983,19.953c0,0,10.143,11.313,0.194,19.702 M36.983,19.953
		c0,0-10.192,11.313-0.194,19.702"/>
</g>
</svg>
