<?xml version="1.0" encoding="utf-8"?>
<!-- Generator: Adobe Illustrator 16.0.0, SVG Export Plug-In . SVG Version: 6.00 Build 0)  -->
<!DOCTYPE svg PUBLIC "-//W3C//DTD SVG 1.1//EN" "http://www.w3.org/Graphics/SVG/1.1/DTD/svg11.dtd">
<svg version="1.1" id="Layer_1" xmlns="http://www.w3.org/2000/svg" xmlns:xlink="http://www.w3.org/1999/xlink" x="0px" y="0px"
	 width="54px" height="61px" viewBox="0 0 54 61" enable-background="new 0 0 54 61" xml:space="preserve">
<g>
	<defs>
		<rect id="SVGID_1_" x="1" y="0.25" width="53.182" height="60.75"/>
	</defs>
	<clipPath id="SVGID_2_">
		<use xlink:href="#SVGID_1_"  overflow="visible"/>
	</clipPath>
	
		<path clip-path="url(#SVGID_2_)" fill="none" stroke="#FFFFFF" stroke-width="2.409" stroke-linecap="round" stroke-linejoin="round" stroke-miterlimit="10" d="
		M17.508,28.884c-0.142-0.283-0.188-0.567-0.188-0.85c0-1.227,0.99-2.172,2.265-2.172c0.899,0,1.749,0.471,2.126,1.228
		 M2.205,31.671c2.927,0.046,5.857,0.142,8.832,0.236c0,0-0.898,5.1,0.142,9.068c1.699,6.754,9.399,5.714,9.729,1.56
		c0.19-2.314-1.37-5.245-2.551-6.473c1.418,0.661,7.416,3.401,7.558,22.104c6.566,3.212,15.35,1.181,21.395-1.841 M2.205,31.671
		c2.55-3.73,6.045-6.989,9.729-8.596c0.803-1.04,0.661-2.031,0-2.929c-5.904-6.8,0.378-14.829,7.133-18.23
		c1.416-0.708,2.597-0.661,3.164,0.566c0.52,1.087,0.991,2.22,1.511,3.306c1.04,2.127,5.29-1.606,6.661-2.551
		c1.182-0.896,2.408-1.604,3.163,0.142c0.474,0.993,0.898,1.984,1.37,2.976c1.37,2.929,6.139-1.321,8.267-2.503
		c4.154-2.692,2.549,3.306,1.794,5.384c-2.599,7.037-11.193,7.084-23.285,5.998c-1.89,0.898-3.259,2.834-3.354,4.252
		c0,0,12.848-1.559,19.837,6.754c6.99,8.359,14.783,21.111,14.783,21.111"/>
</g>
</svg>
