<?xml version="1.0" encoding="utf-8"?>
<!-- Generator: Adobe Illustrator 18.0.0, SVG Export Plug-In . SVG Version: 6.00 Build 0)  -->
<!DOCTYPE svg PUBLIC "-//W3C//DTD SVG 1.1//EN" "http://www.w3.org/Graphics/SVG/1.1/DTD/svg11.dtd">
<svg version="1.1" id="Слой_1" xmlns="http://www.w3.org/2000/svg" xmlns:xlink="http://www.w3.org/1999/xlink" x="0px" y="0px"
	 viewBox="0 0 60 46" enable-background="new 0 0 60 46" xml:space="preserve">
<g>
	<defs>
		<rect id="SVGID_1_" x="13" y="-0.6" width="35.6" height="46.6"/>
	</defs>
	<clipPath id="SVGID_2_">
		<use xlink:href="#SVGID_1_"  overflow="visible"/>
	</clipPath>
	
		<path clip-path="url(#SVGID_2_)" fill="none" stroke="#868686" stroke-width="1.735" stroke-linecap="round" stroke-linejoin="round" stroke-miterlimit="10" d="
		M20.5,12.2h20.7c2.5,0,5.3,2.2,4.5,4.5l-8.1,22.7c-0.8,2.3-2,4.5-4.5,4.5h-2.9c-2.4,0-3.5-2.2-4.5-4.5l-9.7-22.7
		C15.1,14.4,18.1,12.2,20.5,12.2z"/>
	
		<path clip-path="url(#SVGID_2_)" fill="none" stroke="#868686" stroke-width="1.735" stroke-linecap="round" stroke-linejoin="round" stroke-miterlimit="10" d="
		M27,11.2c-0.6-3.1-3.5-5.1-5.2-4.8"/>
	
		<path clip-path="url(#SVGID_2_)" fill="none" stroke="#868686" stroke-width="1.735" stroke-linecap="round" stroke-linejoin="round" stroke-miterlimit="10" d="
		M29.3,11c-1.2-5.7-6.6-9.5-9.7-9"/>
	
		<path clip-path="url(#SVGID_2_)" fill="none" stroke="#868686" stroke-width="1.735" stroke-linecap="round" stroke-linejoin="round" stroke-miterlimit="10" d="
		M34.2,11.2c0.6-3.1,3.6-5.1,5.2-4.8"/>
	
		<path clip-path="url(#SVGID_2_)" fill="none" stroke="#868686" stroke-width="1.735" stroke-linecap="round" stroke-linejoin="round" stroke-miterlimit="10" d="
		M31.9,11c1.2-5.7,6.7-9.5,9.7-9"/>
</g>
<line fill="none" stroke="#868686" stroke-width="1.735" stroke-linecap="round" stroke-linejoin="round" stroke-miterlimit="10" x1="19.2" y1="22" x2="29.5" y2="22"/>
<line fill="none" stroke="#868686" stroke-width="1.735" stroke-linecap="round" stroke-linejoin="round" stroke-miterlimit="10" x1="24.7" y1="26.3" x2="35" y2="26.3"/>
</svg>
