<?xml version="1.0" encoding="utf-8"?>
<!-- Generator: Adobe Illustrator 18.0.0, SVG Export Plug-In . SVG Version: 6.00 Build 0)  -->
<!DOCTYPE svg PUBLIC "-//W3C//DTD SVG 1.1//EN" "http://www.w3.org/Graphics/SVG/1.1/DTD/svg11.dtd">
<svg version="1.1" id="Слой_1" xmlns="http://www.w3.org/2000/svg" xmlns:xlink="http://www.w3.org/1999/xlink" x="0px" y="0px"
	 viewBox="0 0 47 58" enable-background="new 0 0 47 58" xml:space="preserve">
<g>
	<defs>
		<rect id="SVGID_1_" x="4.5" y="0" width="36.6" height="58"/>
	</defs>
	<clipPath id="SVGID_2_">
		<use xlink:href="#SVGID_1_"  overflow="visible"/>
	</clipPath>
	
		<path clip-path="url(#SVGID_2_)" fill="none" stroke="#FFFFFF" stroke-width="2.144" stroke-linecap="round" stroke-linejoin="round" stroke-miterlimit="10" d="
		M12.9,10.6h19.8c3.2,0,5.9,2.6,5.9,5.8v33.2c0,3.2-2.6,5.8-5.9,5.8H12.9c-3.2,0-5.8-2.6-5.8-5.8V16.4C7,13.3,9.6,10.6,12.9,10.6z"
		/>
	
		<line clip-path="url(#SVGID_2_)" fill="none" stroke="#FFFFFF" stroke-width="1.766" stroke-linecap="round" stroke-linejoin="round" stroke-miterlimit="10" x1="13.4" y1="2.3" x2="13.4" y2="10.1"/>
</g>
<line fill="none" stroke="#FFFFFF" stroke-width="1.766" stroke-linecap="round" stroke-linejoin="round" stroke-miterlimit="10" x1="31.7" y1="2.5" x2="31.7" y2="10.1"/>
<g>
	<defs>
		<rect id="SVGID_3_" x="4.5" y="0" width="36.6" height="58"/>
	</defs>
	<clipPath id="SVGID_4_">
		<use xlink:href="#SVGID_3_"  overflow="visible"/>
	</clipPath>
	
		<line clip-path="url(#SVGID_4_)" fill="none" stroke="#FFFFFF" stroke-width="1.766" stroke-linecap="round" stroke-linejoin="round" stroke-miterlimit="10" x1="7.3" y1="46.9" x2="38.5" y2="46.9"/>
	
		<line clip-path="url(#SVGID_4_)" fill="none" stroke="#FFFFFF" stroke-width="1.766" stroke-linecap="round" stroke-linejoin="round" stroke-miterlimit="10" x1="7" y1="20.1" x2="38.5" y2="20.1"/>
	
		<line clip-path="url(#SVGID_4_)" fill="none" stroke="#FFFFFF" stroke-width="1.766" stroke-linecap="round" stroke-linejoin="round" stroke-miterlimit="10" x1="13.4" y1="2.3" x2="18.9" y2="2.3"/>
	
		<line clip-path="url(#SVGID_4_)" fill="none" stroke="#FFFFFF" stroke-width="1.766" stroke-linecap="round" stroke-linejoin="round" stroke-miterlimit="10" x1="26.2" y1="2.3" x2="31.7" y2="2.3"/>
</g>
</svg>
