<?xml version="1.0" encoding="utf-8"?>
<!-- Generator: Adobe Illustrator 18.0.0, SVG Export Plug-In . SVG Version: 6.00 Build 0)  -->
<!DOCTYPE svg PUBLIC "-//W3C//DTD SVG 1.1//EN" "http://www.w3.org/Graphics/SVG/1.1/DTD/svg11.dtd">
<svg version="1.1" id="Слой_1" xmlns="http://www.w3.org/2000/svg" xmlns:xlink="http://www.w3.org/1999/xlink" x="0px" y="0px"
	 viewBox="0 0 70 47" enable-background="new 0 0 70 47" xml:space="preserve">
<g>
	<defs>
		<rect id="SVGID_1_" y="-0.1" width="69.6" height="47.1"/>
	</defs>
	<clipPath id="SVGID_2_">
		<use xlink:href="#SVGID_1_"  overflow="visible"/>
	</clipPath>
	
		<path clip-path="url(#SVGID_2_)" fill="none" stroke="#FFFFFF" stroke-width="3" stroke-linejoin="round" stroke-miterlimit="10" d="
		M1.5,37.2c7.6-7.7,35.3-27.5,66.6-1c-3.1,3.1-7.9,8.4-7.9,8.4c-3.8-2.2-7.7-4.4-11.5-6.6l-0.5-0.7c-0.6-2.3-2.1-6.1-2.2-6.4
		c-9.6-3.3-19.9-1-22.8,0.5l-1.9,6.7c-1.6,1.4-11.7,7.3-11.7,7.3C6.9,42.8,4.2,40,1.5,37.2z"/>
	
		<path clip-path="url(#SVGID_2_)" fill="none" stroke="#FFFFFF" stroke-width="3" stroke-linecap="round" stroke-linejoin="round" stroke-miterlimit="10" d="
		M34.6,1.4l-0.9,9.3 M28.4,13.2l-6.2-6.9 M45.4,6.9l-6.6,6.6"/>
</g>
</svg>
