<?xml version="1.0" encoding="utf-8"?>
<!-- Generator: Adobe Illustrator 18.0.0, SVG Export Plug-In . SVG Version: 6.00 Build 0)  -->
<!DOCTYPE svg PUBLIC "-//W3C//DTD SVG 1.1//EN" "http://www.w3.org/Graphics/SVG/1.1/DTD/svg11.dtd">
<svg version="1.1" id="Слой_1" xmlns="http://www.w3.org/2000/svg" xmlns:xlink="http://www.w3.org/1999/xlink" x="0px" y="0px"
	 viewBox="0 0 95 40" enable-background="new 0 0 95 40" xml:space="preserve">
<g>
	<path fill="#010202" d="M16.5,25.6c-0.6,0-1.2-0.1-1.7-0.3s-1-0.6-1.4-1c-0.4-0.4-0.7-1-0.9-1.6c-0.2-0.6-0.3-1.4-0.3-2.2
		s0.1-1.5,0.4-2.2c0.2-0.6,0.6-1.2,1-1.6c0.4-0.4,0.9-0.8,1.4-1c0.5-0.2,1.1-0.3,1.7-0.3c0.4,0,0.7,0,1,0.1c0.3,0,0.6,0.1,0.8,0.2
		s0.4,0.1,0.6,0.2c0.2,0.1,0.3,0.1,0.4,0.2L19,17c-0.2-0.1-0.5-0.3-0.9-0.4s-0.8-0.2-1.3-0.2c-0.6,0-1.1,0.1-1.6,0.3
		c-0.5,0.2-0.8,0.5-1.1,0.9c-0.3,0.4-0.5,0.8-0.7,1.3c-0.2,0.5-0.2,1.1-0.2,1.7c0,0.6,0.1,1.2,0.2,1.7c0.2,0.5,0.4,1,0.7,1.3
		s0.7,0.6,1.1,0.8c0.4,0.2,0.9,0.3,1.5,0.3c0.6,0,1.1-0.1,1.5-0.2c0.4-0.1,0.7-0.2,0.9-0.4l0.3,0.8c-0.1,0-0.2,0.1-0.3,0.2
		c-0.2,0.1-0.4,0.1-0.6,0.2c-0.2,0.1-0.5,0.1-0.8,0.2C17.3,25.6,16.9,25.6,16.5,25.6z"/>
	<path fill="#010202" d="M26.7,24.6v0.8h-5.5v-9.7h1v8.9H26.7z"/>
	<path fill="#010202" d="M36.7,20.6c0,0.8-0.1,1.6-0.4,2.2c-0.2,0.6-0.6,1.2-1,1.6c-0.4,0.4-0.9,0.7-1.4,1c-0.6,0.2-1.1,0.3-1.8,0.3
		s-1.2-0.1-1.8-0.3c-0.6-0.2-1-0.5-1.4-1c-0.4-0.4-0.7-1-1-1.6c-0.2-0.6-0.4-1.4-0.4-2.2s0.1-1.6,0.4-2.2c0.2-0.6,0.6-1.2,1-1.6
		s0.9-0.7,1.4-1s1.1-0.3,1.8-0.3s1.2,0.1,1.8,0.3s1,0.5,1.4,1c0.4,0.4,0.7,1,1,1.6C36.6,19,36.7,19.7,36.7,20.6z M35.7,20.6
		c0-0.7-0.1-1.2-0.3-1.8c-0.2-0.5-0.4-1-0.7-1.3c-0.3-0.4-0.7-0.6-1.1-0.8c-0.4-0.2-0.9-0.3-1.5-0.3s-1,0.1-1.5,0.3
		s-0.8,0.5-1.1,0.8c-0.3,0.4-0.5,0.8-0.7,1.3c-0.2,0.5-0.3,1.1-0.3,1.8c0,0.7,0.1,1.2,0.3,1.8c0.2,0.5,0.4,1,0.7,1.3
		c0.3,0.4,0.7,0.6,1.1,0.8c0.4,0.2,0.9,0.3,1.5,0.3s1-0.1,1.5-0.3c0.4-0.2,0.8-0.5,1.1-0.8c0.3-0.4,0.5-0.8,0.7-1.3
		C35.6,21.8,35.7,21.2,35.7,20.6z"/>
	<path fill="#010202" d="M41.1,24.8c0.8,0,1.3-0.1,1.8-0.4c0.4-0.3,0.6-0.7,0.6-1.3c0-0.4-0.1-0.7-0.2-0.9c-0.1-0.2-0.3-0.4-0.5-0.6
		s-0.5-0.3-0.8-0.4c-0.3-0.1-0.6-0.2-0.9-0.4c-0.4-0.2-0.8-0.3-1.1-0.5c-0.3-0.2-0.6-0.4-0.8-0.6c-0.2-0.2-0.4-0.5-0.5-0.7
		c-0.1-0.3-0.2-0.6-0.2-1c0-0.8,0.3-1.5,0.8-1.9c0.5-0.4,1.3-0.6,2.3-0.6c0.3,0,0.5,0,0.8,0.1c0.3,0,0.5,0.1,0.7,0.1
		c0.2,0.1,0.4,0.1,0.6,0.2c0.2,0.1,0.3,0.2,0.5,0.2L43.8,17c-0.3-0.2-0.6-0.3-1-0.4c-0.4-0.1-0.8-0.2-1.3-0.2c-0.3,0-0.6,0-0.8,0.1
		c-0.3,0.1-0.5,0.2-0.7,0.3c-0.2,0.1-0.3,0.3-0.4,0.5c-0.1,0.2-0.2,0.5-0.2,0.7c0,0.3,0.1,0.6,0.2,0.8s0.3,0.4,0.5,0.5
		c0.2,0.1,0.4,0.3,0.7,0.4s0.6,0.2,0.9,0.4c0.4,0.2,0.7,0.3,1.1,0.5s0.6,0.3,0.9,0.6s0.5,0.5,0.6,0.8c0.1,0.3,0.2,0.7,0.2,1.1
		c0,0.9-0.3,1.5-0.9,2c-0.6,0.4-1.4,0.7-2.5,0.7c-0.4,0-0.7,0-1-0.1c-0.3,0-0.6-0.1-0.8-0.2c-0.2-0.1-0.4-0.1-0.6-0.2
		c-0.2-0.1-0.3-0.1-0.4-0.2l0.3-0.8c0.1,0.1,0.2,0.1,0.4,0.2c0.2,0.1,0.3,0.1,0.6,0.2c0.2,0.1,0.5,0.1,0.7,0.2
		C40.5,24.8,40.8,24.8,41.1,24.8z"/>
	<path fill="#010202" d="M46.5,25.4v-9.7h5.6v0.8h-4.6v3.4h4.1v0.8h-4.1v3.9h5v0.8H46.5z"/>
</g>
<line fill="none" stroke="#010202" stroke-width="2.688" stroke-linecap="round" x1="83.1" y1="10.5" x2="64.1" y2="29.5"/>
<line fill="none" stroke="#010202" stroke-width="2.688" stroke-linecap="round" x1="83.1" y1="29.5" x2="64.1" y2="10.5"/>
<g>
	<defs>
		<rect id="SVGID_1_" x="-43" y="-5" width="146.3" height="48"/>
	</defs>
	<clipPath id="SVGID_2_">
		<use xlink:href="#SVGID_1_"  overflow="visible"/>
	</clipPath>
	<path clip-path="url(#SVGID_2_)" fill="none" stroke="#6B727B" stroke-miterlimit="10" d="M4,0.5c-0.3,0-2.8,0.1-2.8,2.8v33.4
		c0,0.3,0.1,2.8,2.8,2.8H91c0.3,0,2.8-0.1,2.8-2.8V3.3c0-0.3-0.1-2.8-2.8-2.8H4L4,0.5z"/>
</g>
</svg>
