<?xml version="1.0" encoding="utf-8"?>
<!-- Generator: Adobe Illustrator 18.0.0, SVG Export Plug-In . SVG Version: 6.00 Build 0)  -->
<!DOCTYPE svg PUBLIC "-//W3C//DTD SVG 1.1//EN" "http://www.w3.org/Graphics/SVG/1.1/DTD/svg11.dtd">
<svg version="1.1" id="Слой_1" xmlns="http://www.w3.org/2000/svg" xmlns:xlink="http://www.w3.org/1999/xlink" x="0px" y="0px"
	 viewBox="0 0 48 45" enable-background="new 0 0 48 45" xml:space="preserve">
<line fill="none" stroke="#FFFFFF" stroke-width="0.75" stroke-miterlimit="10" x1="3.1" y1="9.2" x2="3.1" y2="25.4"/>
<g>
	<defs>
		<rect id="SVGID_1_" y="0" width="47.7" height="45"/>
	</defs>
	<clipPath id="SVGID_2_">
		<use xlink:href="#SVGID_1_"  overflow="visible"/>
	</clipPath>
	
		<path clip-path="url(#SVGID_2_)" fill="none" stroke="#FFFFFF" stroke-width="1.786" stroke-linecap="round" stroke-linejoin="round" stroke-miterlimit="10" d="
		M2.5,14.5h17.3 M2.5,8.9h17.3 M3.1,8.9c0-4.4,3.6-8,8-8s8,3.6,8,8 M19.1,23.4V9.2 M3.1,9.2v16.2l4.5,7.4v4.9"/>
</g>
<line fill="none" stroke="#FFFFFF" stroke-width="0.75" stroke-miterlimit="10" x1="44.6" y1="9.2" x2="44.6" y2="25.4"/>
<g>
	<defs>
		<rect id="SVGID_3_" y="0" width="47.7" height="45"/>
	</defs>
	<clipPath id="SVGID_4_">
		<use xlink:href="#SVGID_3_"  overflow="visible"/>
	</clipPath>
	
		<path clip-path="url(#SVGID_4_)" fill="none" stroke="#FFFFFF" stroke-width="1.786" stroke-linecap="round" stroke-linejoin="round" stroke-miterlimit="10" d="
		M36.9,43.9v-9.7c0-4.1-3.4-7.5-7.5-7.5H19.2c-4.1,0-7.5,3.4-7.5,7.5v9.7 M45.3,14.5H27.9 M45.3,8.9H27.9 M44.6,8.9c0-4.4-3.6-8-8-8
		s-8,3.6-8,8 M28.6,23.4V9.2 M44.6,9.2v16.2l-4.5,7.4v4.9"/>
	
		<polyline clip-path="url(#SVGID_4_)" fill="none" stroke="#FFFFFF" stroke-width="1.885" stroke-linecap="round" stroke-linejoin="round" stroke-miterlimit="10" points="
		27.5,43.4 27.5,32.8 20.3,32.8 20.3,43.4 	"/>
	
		<line clip-path="url(#SVGID_4_)" fill="none" stroke="#FFFFFF" stroke-width="1.786" stroke-linecap="round" stroke-linejoin="round" stroke-miterlimit="10" x1="0.9" y1="44.1" x2="46.8" y2="44.1"/>
</g>
</svg>
