<?xml version="1.0" encoding="utf-8"?>
<!-- Generator: Adobe Illustrator 18.0.0, SVG Export Plug-In . SVG Version: 6.00 Build 0)  -->
<!DOCTYPE svg PUBLIC "-//W3C//DTD SVG 1.1//EN" "http://www.w3.org/Graphics/SVG/1.1/DTD/svg11.dtd">
<svg version="1.1" id="Слой_1" xmlns="http://www.w3.org/2000/svg" xmlns:xlink="http://www.w3.org/1999/xlink" x="0px" y="0px"
	 viewBox="0 0 165 165" enable-background="new 0 0 165 165" xml:space="preserve">
<g>
	<defs>
		<rect id="SVGID_1_" x="-0.2" y="0.2" width="165.2" height="163.8"/>
	</defs>
	<clipPath id="SVGID_2_">
		<use xlink:href="#SVGID_1_"  overflow="visible"/>
	</clipPath>
	<path clip-path="url(#SVGID_2_)" fill="#E5EEF6" d="M82.7,164c45.2,0,81.8-36.6,81.8-81.8c0-45.2-36.6-81.8-81.8-81.8
		S0.9,37.1,0.9,82.2C0.9,127.4,37.6,164,82.7,164"/>
</g>
<g>
	<defs>
		<rect id="SVGID_3_" x="-0.2" y="0.2" width="165.2" height="163.8"/>
	</defs>
	<clipPath id="SVGID_4_">
		<use xlink:href="#SVGID_3_"  overflow="visible"/>
	</clipPath>
	<path clip-path="url(#SVGID_4_)" fill="#E5EEF6" d="M40.7,150.7c0,0-14.2,3.4-16,10c0,0-0.8,1-0.7-0.5c0,0,0.9-10.3,8.8-15.2
		C40.8,140.2,40.7,150.7,40.7,150.7"/>
</g>
</svg>
