<?xml version="1.0" encoding="utf-8"?>
<!-- Generator: Adobe Illustrator 18.0.0, SVG Export Plug-In . SVG Version: 6.00 Build 0)  -->
<!DOCTYPE svg PUBLIC "-//W3C//DTD SVG 1.1//EN" "http://www.w3.org/Graphics/SVG/1.1/DTD/svg11.dtd">
<svg version="1.1" id="Слой_1" xmlns="http://www.w3.org/2000/svg" xmlns:xlink="http://www.w3.org/1999/xlink" x="0px" y="0px"
	 viewBox="0 0 25 20" enable-background="new 0 0 25 20" xml:space="preserve">
<g>
	<defs>
		<rect id="SVGID_1_" y="1.1" width="25.1" height="17.3"/>
	</defs>
	<clipPath id="SVGID_2_">
		<use xlink:href="#SVGID_1_"  overflow="visible"/>
	</clipPath>
	
		<path clip-path="url(#SVGID_2_)" fill="none" stroke="#FFFFFF" stroke-width="0.85" stroke-linejoin="round" stroke-miterlimit="10" d="
		M1,14.5c2.6-2.6,12.2-9.5,23-0.3c-1.1,1.1-2.7,2.9-2.7,2.9c-1.3-0.8-2.6-1.5-4-2.3l-0.2-0.2c-0.2-0.8-0.7-2.1-0.8-2.2
		c-3.3-1.1-6.9-0.3-7.9,0.2l-0.6,2.3c-0.6,0.5-4,2.5-4,2.5C2.9,16.4,1.9,15.5,1,14.5z"/>
</g>
<line fill="none" stroke="#FFFFFF" stroke-width="0.85" stroke-linecap="round" stroke-linejoin="round" stroke-miterlimit="10" x1="16.2" y1="4" x2="13.9" y2="6.3"/>
<line fill="none" stroke="#FFFFFF" stroke-width="0.85" stroke-linecap="round" stroke-linejoin="round" stroke-miterlimit="10" x1="10.3" y1="6.2" x2="8.2" y2="3.8"/>
<g>
	<defs>
		<rect id="SVGID_3_" y="1.1" width="25.1" height="17.3"/>
	</defs>
	<clipPath id="SVGID_4_">
		<use xlink:href="#SVGID_3_"  overflow="visible"/>
	</clipPath>
	
		<line clip-path="url(#SVGID_4_)" fill="none" stroke="#FFFFFF" stroke-width="0.85" stroke-linecap="round" stroke-linejoin="round" stroke-miterlimit="10" x1="12.5" y1="2.1" x2="12.2" y2="5.3"/>
</g>
</svg>
