<svg xmlns="http://www.w3.org/2000/svg" viewBox="0 0 122 121"><defs><style>.a,.b{fill:#fff;}.b{fill-rule:evenodd;}</style></defs><title>icon_question</title><path class="a" d="M61,121c-16.86,0-37.43-2.14-37.64-2.17C13,117.47,3.53,108.06,2.25,97.83,2,96.94,0,87.08,0,60.54S2.06,24.1,2.25,23.25c1.4-10.34,10.83-19.74,21-21C24.17,2.05,34.24,0,61,0,88.49,0,98.36,2.16,98.76,2.26c10.27,1.35,19.71,10.77,21,21C120,24.14,122,34,122,60.54c0,27.28-2.17,36.95-2.26,37.34-1.36,10.21-10.82,19.65-21.08,20.95C98.43,118.86,77.86,121,61,121ZM61,2C33.8,2,23.78,4.18,23.68,4.21l-.1,0C14.18,5.36,5.5,14,4.22,23.56l0,.09c0,.1-2.21,9.91-2.21,36.89s2.19,36.8,2.21,36.89l0,.1c1.15,9.4,9.84,18.06,19.37,19.31.18,0,20.65,2.15,37.4,2.15s37.22-2.13,37.43-2.16c9.4-1.19,18.08-9.86,19.35-19.32,0-.19,2.22-10,2.22-37s-2.19-36.8-2.21-36.89l0-.1c-1.15-9.4-9.84-18.07-19.36-19.32C98.22,4.18,88.2,2,61,2Z"/><path class="b" d="M59.25,80.36A2.42,2.42,0,0,1,60,78.72l.85-.71c.43-.36.77-.19.77.35v8a1,1,0,0,1-1,1h-.39a1,1,0,0,1-1-1ZM51,37.06a5,5,0,0,1,3-3.73A16.52,16.52,0,0,1,60.73,32q6.23,0,9.45,3.57a13.17,13.17,0,0,1,3.22,9.17,15.92,15.92,0,0,1-1.19,6.16,15.25,15.25,0,0,1-2.59,4.41q-1.4,1.54-3.4,3.5t-2.69,2.8A8,8,0,0,0,62,65.53a60.62,60.62,0,0,0-.32,7.35c0,.79-2.38,2.79-2.38,2a73,73,0,0,1,.56-10.51,9.69,9.69,0,0,1,1.89-4.17,36.57,36.57,0,0,1,2.66-2.69q2-1.93,3.22-3.25a15.38,15.38,0,0,0,3.36-9.45q0-4.9-2.66-7.63t-7.84-2.73a12.61,12.61,0,0,0-4.44.7,11.1,11.1,0,0,0-2.76,1.4,2.85,2.85,0,0,1-1.26.7.9.9,0,0,1-.67-.35C51.1,36.67,51,37.39,51,37.06Z"/></svg>