<?xml version="1.0" encoding="utf-8"?>
<!-- Generator: Adobe Illustrator 18.0.0, SVG Export Plug-In . SVG Version: 6.00 Build 0)  -->
<!DOCTYPE svg PUBLIC "-//W3C//DTD SVG 1.1//EN" "http://www.w3.org/Graphics/SVG/1.1/DTD/svg11.dtd">
<svg version="1.1" id="Слой_1" xmlns="http://www.w3.org/2000/svg" xmlns:xlink="http://www.w3.org/1999/xlink" x="0px" y="0px"
	 viewBox="0 0 293 127" enable-background="new 0 0 293 127" xml:space="preserve">
<g>
	<defs>
		<rect id="SVGID_1_" y="32.1" width="292.8" height="62.9"/>
	</defs>
	<clipPath id="SVGID_2_">
		<use xlink:href="#SVGID_1_"  overflow="visible"/>
	</clipPath>
	<path clip-path="url(#SVGID_2_)" fill="#0974B8" d="M42.4,32.1c-1.2,0.2-5.4,2.2-7.6,18.8l6,10.7c0.4,0.5,0.9,1.7,0.9,1.7
		c0.6,1.2,0.9,2.6,0.9,4.1c0,5.8-4.6,10.3-10.3,10.3c-5.7,0-10.3-4.5-10.3-10.3c0-1.4,0.3-2.8,0.9-4.1l0.1-0.3
		c0.2-0.5,0.5-0.9,0.8-1.3l6-10.8c-2.2-16.6-6.4-18.6-7.6-18.8C9.3,36.4,0,48.5,0,62.7C0,80.6,14.4,95,32.3,95
		c17.8,0,32.3-14.4,32.3-32.3C64.5,48.5,55.2,36.4,42.4,32.1"/>
	<path clip-path="url(#SVGID_2_)" fill="#1396D4" d="M22.1,32.1C11.5,35.6,3.4,44.5,0.8,55.4c2,1.9,4.2,3.4,6.4,4.6
		c2.9-5.2,11-9.4,22-11.9C27,34.1,23.2,32.3,22.1,32.1"/>
	<path clip-path="url(#SVGID_2_)" fill="#1BB1E8" d="M7.3,60.1c3.5,1.9,7.2,2.9,11.1,2.9c1.6,0,3.2-0.2,4.8-0.5
		c0.1-0.2,0.3-0.4,0.4-0.7l6-10.8c-0.1-0.5-0.1-1-0.2-1.5c0-0.1,0-0.2,0-0.2c0-0.3-0.1-0.6-0.1-0.8c0-0.1,0-0.2,0-0.3
		C18.2,50.7,10.2,54.9,7.3,60.1"/>
	<path clip-path="url(#SVGID_2_)" fill="#1396D4" d="M45.7,33.4c0,0-0.1,0-0.1-0.1c-0.4-0.2-0.9-0.4-1.3-0.6c-0.1,0-0.2-0.1-0.4-0.1
		c-0.5-0.2-1-0.4-1.5-0.5c-1.1,0.2-4.7,1.9-7,14.8c2.6-0.4,5.3-0.7,8.2-1c2-3.3,3.7-6.9,5.1-10.9C47.7,34.4,46.7,33.9,45.7,33.4"/>
	<path clip-path="url(#SVGID_2_)" fill="#139EDA" d="M22.4,79.8c-2.4,3.2-4.6,6.7-6.7,10.6c4.8,2.9,10.5,4.6,16.6,4.6
		c8.4,0,16.1-3.2,21.8-8.5c0,0-0.1,0.1-0.1,0.1C41.7,85.7,30.7,83.2,22.4,79.8"/>
	<path clip-path="url(#SVGID_2_)" fill="#1BB1E8" d="M30.9,77.6c-0.2,0-0.4-0.1-0.6-0.1c-0.1,0-0.3-0.1-0.4-0.1
		c-0.2,0-0.3-0.1-0.5-0.1c-0.1,0-0.3-0.1-0.4-0.1c-0.1,0-0.3-0.1-0.4-0.2c-0.2-0.1-0.3-0.1-0.5-0.2c-0.1,0-0.2-0.1-0.3-0.2
		c-0.2-0.1-0.3-0.2-0.5-0.3c0,0-0.1,0-0.1-0.1c-0.4-0.3-0.9-0.5-1.3-0.9c0,0,0,0,0,0c-1.2,1.4-2.3,2.8-3.5,4.4
		c8.4,3.4,19.3,5.9,31.6,6.8c0.1-0.1,0.1-0.1,0.2-0.2c0.3-0.2,0.5-0.5,0.8-0.8c0.1-0.1,0.2-0.2,0.3-0.3c0.3-0.3,0.7-0.7,1-1.1
		c0.1-0.1,0.2-0.2,0.2-0.3c0.2-0.3,0.5-0.6,0.7-0.9c0.1-0.1,0.2-0.3,0.3-0.4c0.2-0.3,0.4-0.5,0.6-0.8c0.1-0.1,0.2-0.3,0.3-0.4
		c0.3-0.4,0.6-0.8,0.8-1.2c0.1-0.1,0.1-0.2,0.2-0.3c0.2-0.3,0.4-0.7,0.6-1c0.1-0.2,0.2-0.3,0.3-0.5c0.2-0.3,0.3-0.6,0.5-0.9
		c0.1-0.2,0.2-0.3,0.3-0.5c0.2-0.4,0.3-0.7,0.5-1.1c0-0.1,0.1-0.2,0.1-0.3c0.2-0.4,0.4-0.9,0.5-1.3c0.1-0.2,0.1-0.3,0.2-0.5
		c0.1-0.3,0.2-0.6,0.3-0.9c0.1-0.2,0.1-0.4,0.2-0.6c0-0.1,0.1-0.2,0.1-0.3c-2-4.9-5.1-8.4-9.3-10c-3.7-1.4-7.9-1.1-12.2,0.7
		c0,0.1,0.1,0.1,0.1,0.2c0,0,0,0,0,0c0,0,0,0.1,0,0.1c0.6,1.2,0.9,2.6,0.9,4.1c0,5.8-4.6,10.3-10.3,10.3c-0.3,0-0.7,0-1,0
		C31.2,77.6,31,77.6,30.9,77.6"/>
	<path clip-path="url(#SVGID_2_)" fill="#139EDA" d="M21.9,67.4c0-1.4,0.3-2.8,0.8-4.1l0.1-0.3c0.1-0.2,0.2-0.4,0.3-0.6
		c-1.6,0.3-3.2,0.5-4.8,0.5c-3.9,0-7.7-1-11.1-2.9c-0.7,1.3-1.1,2.6-1.2,4c-0.2,6,6,11.6,16.3,15.8h0c0.5-0.7,1.1-1.4,1.6-2.1
		c0.1-0.1,0.1-0.2,0.2-0.2c0.6-0.7,1.1-1.4,1.7-2c0,0,0,0,0,0C23.5,73.6,21.9,70.7,21.9,67.4"/>
	<path clip-path="url(#SVGID_2_)" fill="#139EDA" d="M40.8,61.6c0.3,0.3,0.6,1.1,0.8,1.5c4.3-1.8,8.5-2.1,12.2-0.7
		c1.3,0.5,2.5,1.2,3.6,2c0,0,0.1,0.1,0.1,0.1c0.2,0.1,0.3,0.3,0.5,0.4c0.1,0.1,0.2,0.2,0.3,0.3c0.1,0.1,0.2,0.2,0.3,0.3
		c0.2,0.2,0.3,0.3,0.5,0.5c0,0,0.1,0.1,0.1,0.1c0.2,0.2,0.4,0.4,0.6,0.6l0,0c1.3,1.6,2.4,3.4,3.3,5.6c1-3,1.5-6.3,1.5-9.6
		c0-6.3-1.8-12.2-5-17.2c-5.5-0.2-10.9-0.1-15.9,0.4c-2,3.3-4.3,6.2-6.7,8.7L40.8,61.6z"/>
	<path clip-path="url(#SVGID_2_)" fill="#1BB1E8" d="M43.6,45.9c-2.8,0.2-5.6,0.6-8.2,1c-0.1,0.6-0.2,1.2-0.3,1.8c0,0.1,0,0.2,0,0.2
		c-0.1,0.6-0.2,1.3-0.3,2l2.1,3.7C39.3,52.2,41.6,49.2,43.6,45.9"/>
	<path clip-path="url(#SVGID_2_)" fill="#FFFFFF" d="M80.1,77.1h7.7V41.3c-0.2-0.1-0.6-0.2-1.4-0.4c-0.7-0.2-1.5-0.3-2.3-0.3
		c-1.2,0-2.2,0.2-2.9,0.7c-0.7,0.5-1.1,1.3-1.1,2.6V77.1z"/>
	<path clip-path="url(#SVGID_2_)" fill="#FFFFFF" d="M107.2,49.1c-1.7,0.1-3.3,0.3-4.8,0.7c-1.7,0.5-3.1,1.2-4.2,2.2
		c-1.2,1-2.1,2.1-2.7,3.5c-0.6,1.4-1,3-1,4.8v16.8h7.5V62.2c0-4.2,1.9-6.4,5.7-6.6c3.8,0.2,5.7,2.3,5.7,6.6v14.9h7.5V60.4
		c0-1.8-0.3-3.4-1-4.8c-0.6-1.4-1.5-2.6-2.7-3.5c-1.2-1-2.6-1.7-4.2-2.2c-1.4-0.4-3.1-0.6-4.8-0.7H107.2z"/>
	<path clip-path="url(#SVGID_2_)" fill="#FFFFFF" d="M143.1,70.4c0,0-0.2,0.1-0.4,0.3c-0.2,0.2-0.6,0.3-0.9,0.5
		c-0.4,0.2-0.8,0.3-1.3,0.4c-0.5,0.1-1,0.2-1.5,0.2c-1.2,0-2.1-0.3-2.8-0.8c-0.7-0.5-1.1-1.6-1.1-3.2V56h8.2
		c0.1-0.2,0.2-0.5,0.4-1.1c0.2-0.6,0.3-1.2,0.3-1.9c0-1-0.2-1.7-0.7-2.2c-0.5-0.5-1.3-0.8-2.5-0.8H135v-7.2
		c-0.2-0.1-0.6-0.2-1.3-0.4c-0.7-0.2-1.4-0.3-2.3-0.3c-1.2,0-2.1,0.2-2.8,0.7c-0.7,0.5-1.1,1.3-1.1,2.5v23.2c0,2.8,0.8,5,2.3,6.8
		c1.5,1.7,4,2.6,7.4,2.6c1.3,0,2.5-0.1,3.5-0.4c1-0.3,1.9-0.6,2.7-1c0.7-0.4,1.3-0.7,1.7-1c0.4-0.3,0.6-0.5,0.7-0.6L143.1,70.4z"/>
	<path clip-path="url(#SVGID_2_)" fill="#FFFFFF" d="M199.3,51c-0.4-0.5-0.9-0.8-1.6-1.1c-0.7-0.3-1.5-0.5-2.3-0.6
		c-0.9-0.1-1.8-0.2-2.8-0.2c-0.3,0-0.6,0-0.9,0c-1.4,0.1-2.7,0.3-4,0.7c-1.5,0.5-2.7,1.2-3.7,2.1c-1,0.9-1.8,2.1-2.4,3.4
		c-0.6,1.4-0.9,2.9-0.9,4.6v17.2h7.5V60.3c0-1.8,0.5-3.1,1.4-3.9c0.9-0.8,2-1.2,3.4-1.2c0.1,0,0.3,0,0.4,0c0.5,0,1,0,1.6,0.1
		c0.6,0.1,1.1,0.2,1.5,0.3c0.5,0.1,0.9,0.2,1.2,0.4c0.4,0.1,0.6,0.2,0.7,0.3c0.3-0.3,0.6-0.7,1-1.3c0.4-0.6,0.6-1.4,0.6-2.3
		C199.9,52.1,199.7,51.5,199.3,51"/>
	<path clip-path="url(#SVGID_2_)" fill="#FFFFFF" d="M290.5,57.7L290.5,57.7c1.7-1.6,2.1-3,2.2-3.6c0-0.1,0-0.3,0-0.3
		c0-0.1,0-0.1,0-0.2v0c0-0.2,0-0.3,0-0.5c0-0.9-0.2-1.7-0.6-2.3c-0.4-0.6-1-0.9-2-0.9h-23.3c-0.1,0.1-0.2,0.5-0.3,1
		c-0.1,0.6-0.2,1.2-0.2,1.8c0,0.9,0.2,1.7,0.6,2.3c0.4,0.6,1,0.9,2,0.9h13.9l-16.6,15.2v6h26.3v-6h-16.8L290.5,57.7z"/>
	<path clip-path="url(#SVGID_2_)" fill="#FFFFFF" d="M221.3,67.4c-1.2,1.4-2.8,2-4.7,2c-2,0-3.6-0.7-4.7-2c-1.2-1.3-1.8-3.1-1.8-5.3
		c0-2.2,0.6-4,1.8-5.3c1.2-1.3,2.8-2,4.7-2c2,0,3.6,0.7,4.7,2c1.2,1.3,1.8,3.1,1.8,5.4C223,64.3,222.5,66.1,221.3,67.4 M230.5,62.1
		c0-1.9-0.3-3.7-1-5.3c-0.7-1.6-1.6-3-2.8-4.1c-1.2-1.2-2.7-2.1-4.4-2.7c-1.6-0.6-3.3-0.9-5.1-0.9c-0.2,0-0.4,0-0.6,0
		c-2,0-3.8,0.3-5.5,1c-1.7,0.6-3.1,1.5-4.4,2.7c-1.2,1.2-2.2,2.5-2.9,4.1c-0.7,1.6-1,3.4-1,5.3c0,1.9,0.3,3.7,1,5.3
		c0.7,1.6,1.6,3,2.8,4.1c1.2,1.2,2.7,2.1,4.4,2.7c1.7,0.6,3.5,0.9,5.5,1v0c0.1,0,0.2,0,0.2,0c2,0,3.8-0.3,5.5-1
		c0.3-0.1,0.6-0.2,0.9-0.4v0.6c0,1.4-0.2,2.5-0.6,3.4c-0.4,0.9-0.9,1.7-1.6,2.2c-0.7,0.6-1.5,1-2.5,1.3c-1,0.2-2,0.4-3.2,0.4
		c-1.1,0-2.2-0.1-3.2-0.2c-1-0.2-1.8-0.3-2.6-0.5s-1.3-0.4-1.8-0.6c-0.4-0.2-0.7-0.3-0.8-0.3l-3,5.2c0.1,0.1,0.6,0.3,0.8,0.4
		c0.7,0.3,1.5,0.5,2.5,0.8c1,0.3,2.2,0.5,3.5,0.7c1.3,0.2,2.8,0.3,4.3,0.3c2.2,0,4.3-0.3,6.2-0.9c1.9-0.6,3.5-1.6,4.9-2.9
		c1.4-1.3,2.5-2.9,3.2-5c0.8-2,1.2-4.4,1.2-7.2v-6.8c0-0.5,0-1,0-1.5C230.5,62.8,230.5,62.5,230.5,62.1"/>
	<path clip-path="url(#SVGID_2_)" fill="#FFFFFF" d="M253.6,72.3c-0.5,0.1-2,0.4-2.8,0.5c-0.9,0.1-2,0.2-3.4,0.2
		c-1.3,0-2.3-0.1-3.1-0.3c-0.8-0.2-1.4-0.5-1.9-0.9c-0.4-0.4-0.7-0.8-0.9-1.3c-0.1-0.5-0.2-0.9-0.2-1.4c0-0.6,0.1-1.1,0.2-1.6
		c0.2-0.5,0.5-1,0.9-1.3c0.4-0.4,1.1-0.7,1.9-0.9c0.8-0.2,1.9-0.3,3.2-0.3c0.6,0,1.1,0,1.7,0c0.5,0,1.1,0,1.5,0.1
		c0.5,0,0.9,0.1,1.2,0.1c0.2,0,1.1,0.2,1.6,0.3V72.3z M259.9,55.3c-0.7-1.5-1.7-2.7-3-3.6c-1.3-0.9-2.8-1.5-4.6-1.9
		c-1.8-0.4-3.8-0.6-5.9-0.6c-1.1,0-2.2,0.1-3.3,0.2c-1.1,0.1-2,0.4-2.9,0.7c-0.8,0.3-1.5,0.8-2,1.3c-0.5,0.5-0.7,1.2-0.7,2
		c0,0.8,0.2,1.5,0.6,2.1c0.4,0.6,0.8,1.1,1.3,1.4c0.2-0.1,0.6-0.3,1-0.6c0.4-0.3,0.9-0.5,1.5-0.8c0.6-0.3,1.3-0.5,2.1-0.7
		c0.8-0.2,1.8-0.3,2.8-0.3c2.4,0,4.1,0.4,5.3,1.3c1.1,0.9,1.7,2.2,1.7,3.8v0.9c-0.2,0-0.8-0.1-1.9-0.2c-1.1-0.1-2.4-0.1-4-0.1
		c-2.3,0-4.3,0.2-5.9,0.5c-1.6,0.4-2.9,0.9-4,1.6c-1,0.7-1.8,1.7-2.2,2.8c-0.5,1.1-0.7,2.5-0.7,4c0,1.2,0.2,2.4,0.6,3.4
		c0.4,1,1.1,2,2.1,2.7c1,0.8,2.3,1.4,4,1.8c1.7,0.4,3.8,0.7,6.5,0.7c1.8,0,3.5,0,5-0.1c1.5-0.1,2.8-0.2,4-0.3c1.1-0.1,2-0.2,2.7-0.3
		c0.7-0.1,1.1-0.2,1.2-0.2V61C261,58.7,260.7,56.8,259.9,55.3"/>
	<path clip-path="url(#SVGID_2_)" fill="#FFFFFF" d="M155.8,61.9c0-0.9,0.2-1.8,0.6-2.7c0.3-0.9,0.8-1.7,1.4-2.4
		c0.6-0.7,1.4-1.2,2.2-1.6c0.9-0.4,1.9-0.6,3.1-0.6c1.4,0,2.6,0.3,3.6,0.9c1,0.6,1.5,1.5,1.5,2.7c0,0.5-0.1,0.9-0.3,1.4
		c-0.2,0.4-0.6,0.8-1.2,1.2c-0.6,0.4-1.5,0.6-2.5,0.9c-1.1,0.2-2.5,0.3-4.3,0.3h-2C157.2,61.9,156.5,61.9,155.8,61.9 M159.3,66.8
		c3.1,0,5.8-0.2,7.8-0.6c2.1-0.4,3.7-1,4.9-1.8c1.2-0.7,2.1-1.6,2.5-2.7c0.5-1,0.7-2.2,0.7-3.5c0-1.2-0.3-2.4-0.8-3.5
		c-0.5-1.1-1.3-2.1-2.3-2.9c-1-0.8-2.2-1.5-3.7-2c-0.9-0.3-1.8-0.5-2.8-0.6c-0.9-0.1-1.8-0.2-2.7-0.2c-2.2,0-4.1,0.4-5.9,1.1
		c-1.8,0.7-3.3,1.7-4.6,3c-1.3,1.3-2.2,2.9-2.9,4.7c-0.7,1.8-1,3.8-1,6.1c0,2.4,0.4,4.5,1.1,6.3c0.7,1.8,1.8,3.3,3.1,4.4
		c1.3,1.2,2.9,2,4.7,2.6c1.8,0.6,3.8,0.9,5.9,0.9c1.5,0,2.9-0.1,4.2-0.3c1.2-0.2,2.3-0.4,3.2-0.6c0.9-0.2,1.6-0.5,2.2-0.7
		c0.5-0.2,0.8-0.4,0.9-0.4l-2-5.3c-0.3,0.1-1,0.4-2.3,0.7c-1.2,0.3-3,0.5-5.3,0.5s-4.1-0.5-5.5-1.5c-1.4-1-2.2-2.2-2.6-3.7h1.1
		C157.8,66.8,158.5,66.8,159.3,66.8"/>
</g>
</svg>
