<?xml version="1.0" encoding="utf-8"?>
<!-- Generator: Adobe Illustrator 18.0.0, SVG Export Plug-In . SVG Version: 6.00 Build 0)  -->
<!DOCTYPE svg PUBLIC "-//W3C//DTD SVG 1.1//EN" "http://www.w3.org/Graphics/SVG/1.1/DTD/svg11.dtd">
<svg version="1.1" id="Слой_1" xmlns="http://www.w3.org/2000/svg" xmlns:xlink="http://www.w3.org/1999/xlink" x="0px" y="0px"
	 viewBox="0 0 23 23" enable-background="new 0 0 23 23" xml:space="preserve">
<g>
	<defs>
		<rect id="SVGID_1_" x="1.2" y="0.4" width="20" height="21.6"/>
	</defs>
	<clipPath id="SVGID_2_">
		<use xlink:href="#SVGID_1_"  overflow="visible"/>
	</clipPath>
	
		<path clip-path="url(#SVGID_2_)" fill="none" stroke="#868686" stroke-width="1.085" stroke-linecap="round" stroke-linejoin="round" stroke-miterlimit="10" d="
		M11.9,2c0,0-5.4,6-0.1,10.4"/>
	
		<path clip-path="url(#SVGID_2_)" fill="none" stroke="#868686" stroke-width="1.085" stroke-linecap="round" stroke-linejoin="round" stroke-miterlimit="10" d="
		M11.9,2c0,0,5.4,6,0.1,10.4"/>
	
		<path clip-path="url(#SVGID_2_)" fill="none" stroke="#868686" stroke-width="1.085" stroke-linecap="round" stroke-linejoin="round" stroke-miterlimit="10" d="
		M16.7,20.4H3.6c-0.4,0-0.8-0.4-0.8-0.8V17c0-0.4,0.3-0.7,0.8-0.7h4.8v-1.6c0-0.4,0.3-0.8,0.7-0.8h5.2c0.4,0,0.7,0.4,0.7,0.8v1.6H20
		c0.4,0,0.8,0.3,0.8,0.7v2.6"/>
</g>
</svg>
