<?xml version="1.0" encoding="utf-8"?>
<!-- Generator: Adobe Illustrator 18.0.0, SVG Export Plug-In . SVG Version: 6.00 Build 0)  -->
<!DOCTYPE svg PUBLIC "-//W3C//DTD SVG 1.1//EN" "http://www.w3.org/Graphics/SVG/1.1/DTD/svg11.dtd">
<svg version="1.1" id="Слой_1" xmlns="http://www.w3.org/2000/svg" xmlns:xlink="http://www.w3.org/1999/xlink" x="0px" y="0px"
	 viewBox="0 0 23 23" enable-background="new 0 0 23 23" xml:space="preserve">
<g>
	<defs>
		<rect id="SVGID_1_" x="1" y="2.1" width="21.9" height="19.9"/>
	</defs>
	<clipPath id="SVGID_2_">
		<use xlink:href="#SVGID_1_"  overflow="visible"/>
	</clipPath>
	
		<path clip-path="url(#SVGID_2_)" fill="none" stroke="#868686" stroke-width="0.982" stroke-linecap="round" stroke-linejoin="round" stroke-miterlimit="10" d="
		M3.8,6.1h16.3c0.7,0,1.3,0.6,1.3,1.3v11.7c0,0.7-0.6,1.3-1.3,1.3H3.8c-0.7,0-1.3-0.6-1.3-1.3V7.5C2.5,6.7,3.1,6.1,3.8,6.1z"/>
	
		<path clip-path="url(#SVGID_2_)" fill="none" stroke="#868686" stroke-width="0.982" stroke-linecap="round" stroke-linejoin="round" stroke-miterlimit="10" d="
		M9.2,4.8c1.3-1.2,3.4-1.3,4.7,0"/>
</g>
<rect x="10.7" y="8.1" fill="none" stroke="#868686" stroke-width="0.982" stroke-linecap="round" stroke-linejoin="round" stroke-miterlimit="10" width="2.1" height="4"/>
<g>
	<defs>
		<rect id="SVGID_3_" x="1" y="2.1" width="21.9" height="19.9"/>
	</defs>
	<clipPath id="SVGID_4_">
		<use xlink:href="#SVGID_3_"  overflow="visible"/>
	</clipPath>
	
		<line clip-path="url(#SVGID_4_)" fill="none" stroke="#868686" stroke-width="0.982" stroke-linecap="round" stroke-linejoin="round" stroke-miterlimit="10" x1="2.5" y1="10.5" x2="10.7" y2="10.5"/>
	
		<line clip-path="url(#SVGID_4_)" fill="none" stroke="#868686" stroke-width="0.982" stroke-linecap="round" stroke-linejoin="round" stroke-miterlimit="10" x1="13.1" y1="10.5" x2="21.4" y2="10.5"/>
</g>
</svg>
