<?xml version="1.0" encoding="utf-8"?>
<!-- Generator: Adobe Illustrator 18.0.0, SVG Export Plug-In . SVG Version: 6.00 Build 0)  -->
<!DOCTYPE svg PUBLIC "-//W3C//DTD SVG 1.1//EN" "http://www.w3.org/Graphics/SVG/1.1/DTD/svg11.dtd">
<svg version="1.1" id="Слой_1" xmlns="http://www.w3.org/2000/svg" xmlns:xlink="http://www.w3.org/1999/xlink" x="0px" y="0px"
	 viewBox="0 0 23 23" enable-background="new 0 0 23 23" xml:space="preserve">
<g>
	<defs>
		<rect id="SVGID_1_" x="1" y="1.4" width="21.7" height="19.6"/>
	</defs>
	<clipPath id="SVGID_2_">
		<use xlink:href="#SVGID_1_"  overflow="visible"/>
	</clipPath>
	
		<path clip-path="url(#SVGID_2_)" fill="none" stroke="#868686" stroke-width="1.017" stroke-linecap="round" stroke-linejoin="round" stroke-miterlimit="10" d="
		M18.4,12.4v5.9c0,0.7-0.6,1.2-1.2,1.2H6.5c-0.7,0-1.2-0.6-1.2-1.2v-5.8"/>
	
		<path clip-path="url(#SVGID_2_)" fill="none" stroke="#868686" stroke-width="1.017" stroke-linecap="round" stroke-linejoin="round" stroke-miterlimit="10" d="
		M9.3,16.5c0,0-1.8-1.1-0.7-3.3c1.1-2.2,1.2-2.5,0.7-3.4"/>
	
		<path clip-path="url(#SVGID_2_)" fill="none" stroke="#868686" stroke-width="1.017" stroke-linecap="round" stroke-linejoin="round" stroke-miterlimit="10" d="
		M12.1,16.5c0,0-1.8-1.1-0.7-3.3c1.1-2.2,1.2-2.5,0.7-3.4"/>
	
		<path clip-path="url(#SVGID_2_)" fill="none" stroke="#868686" stroke-width="1.017" stroke-linecap="round" stroke-linejoin="round" stroke-miterlimit="10" d="
		M14.9,16.5c0,0-1.8-1.1-0.7-3.3c1.1-2.2,1.2-2.5,0.7-3.4"/>
	
		<path clip-path="url(#SVGID_2_)" fill="none" stroke="#868686" stroke-width="1.017" stroke-linecap="round" stroke-linejoin="round" stroke-miterlimit="10" d="
		M2.5,12l8.8-8.8c0.3-0.3,0.7-0.3,1,0c3,3,5.9,5.9,8.8,8.9"/>
</g>
<line fill="none" stroke="#868686" stroke-width="1.017" stroke-linecap="round" stroke-linejoin="round" stroke-miterlimit="10" x1="18.4" y1="9.3" x2="18.4" y2="5.6"/>
</svg>
