<?xml version="1.0" encoding="utf-8"?>
<!-- Generator: Adobe Illustrator 18.0.0, SVG Export Plug-In . SVG Version: 6.00 Build 0)  -->
<!DOCTYPE svg PUBLIC "-//W3C//DTD SVG 1.1//EN" "http://www.w3.org/Graphics/SVG/1.1/DTD/svg11.dtd">
<svg version="1.1" id="Слой_1" xmlns="http://www.w3.org/2000/svg" xmlns:xlink="http://www.w3.org/1999/xlink" x="0px" y="0px"
	 viewBox="0 0 34 30" enable-background="new 0 0 34 30" xml:space="preserve">
<g>
	<defs>
		<rect id="SVGID_1_" x="3" y="-0.1" width="26.2" height="30.1"/>
	</defs>
	<clipPath id="SVGID_2_">
		<use xlink:href="#SVGID_1_"  overflow="visible"/>
	</clipPath>
	
		<path clip-path="url(#SVGID_2_)" fill="none" stroke="#868686" stroke-width="1.113" stroke-linecap="round" stroke-linejoin="round" stroke-miterlimit="10" d="
		M14.3,3.5c0,0-7.5,0.8-7.1,9.5c0.4,8.6,0.2,9.7-2.8,11.7"/>
	
		<line clip-path="url(#SVGID_2_)" fill="none" stroke="#868686" stroke-width="1.113" stroke-linecap="round" stroke-linejoin="round" stroke-miterlimit="10" x1="4.4" y1="24.6" x2="27.8" y2="24.6"/>
	
		<path clip-path="url(#SVGID_2_)" fill="none" stroke="#868686" stroke-width="1.113" stroke-linecap="round" stroke-linejoin="round" stroke-miterlimit="10" d="
		M18.2,26.8c-0.1,1.1-1,1.9-2.1,1.9c-1.2,0-2.1-0.9-2.1-2"/>
	
		<path clip-path="url(#SVGID_2_)" fill="none" stroke="#868686" stroke-width="1.113" stroke-linecap="round" stroke-linejoin="round" stroke-miterlimit="10" d="
		M14.5,2.1c0.9-0.8,2.3-0.9,3.1,0"/>
	
		<path clip-path="url(#SVGID_2_)" fill="none" stroke="#868686" stroke-width="1.113" stroke-linecap="round" stroke-linejoin="round" stroke-miterlimit="10" d="
		M18,3.5c0,0,7.5,0.8,7.1,9.5c-0.4,8.6-0.2,9.7,2.8,11.7"/>
</g>
</svg>
