<?xml version="1.0" encoding="utf-8"?>
<!-- Generator: Adobe Illustrator 18.0.0, SVG Export Plug-In . SVG Version: 6.00 Build 0)  -->
<!DOCTYPE svg PUBLIC "-//W3C//DTD SVG 1.1//EN" "http://www.w3.org/Graphics/SVG/1.1/DTD/svg11.dtd">
<svg version="1.1" id="Слой_1" xmlns="http://www.w3.org/2000/svg" xmlns:xlink="http://www.w3.org/1999/xlink" x="0px" y="0px"
	 viewBox="0 0 289 214" enable-background="new 0 0 289 214" xml:space="preserve">
<text transform="matrix(1 0 0 1 -0.214 197.5537)"><tspan x="0" y="0" font-family="'Ubuntu'" font-size="12">Jan</tspan><tspan x="18.8" y="0" font-family="'Ubuntu'" font-size="12">      </tspan><tspan x="39.1" y="0" font-family="'Ubuntu'" font-size="12">Mar</tspan><tspan x="60.1" y="0" font-family="'Ubuntu'" font-size="12">      </tspan><tspan x="80.3" y="0" font-family="'Ubuntu'" font-size="12">M</tspan><tspan x="90.7" y="0" font-family="'Ubuntu'" font-size="12">a</tspan><tspan x="96.6" y="0" font-family="'Ubuntu'" font-size="12">y</tspan><tspan x="102.5" y="0" font-family="'Ubuntu'" font-size="12">      </tspan><tspan x="122.7" y="0" font-family="'Ubuntu'" font-size="12">J</tspan><tspan x="128.6" y="0" font-family="'Ubuntu'" font-size="12">ul</tspan><tspan x="138.5" y="0" font-family="'Ubuntu'" font-size="12">      </tspan><tspan x="158.8" y="0" font-family="'Ubuntu'" font-size="12">Sep</tspan><tspan x="178.6" y="0" font-family="'Ubuntu'" font-size="12"> </tspan></text>
<text transform="matrix(1 0 0 1 181.6044 197.5537)"><tspan x="0" y="0" font-family="'Ubuntu'" font-size="13">   </tspan><tspan x="11" y="0" font-family="'Ubuntu'" font-size="13"> </tspan></text>
<text transform="matrix(1 0 0 1 196.2157 197.5537)"><tspan x="0" y="0" font-family="'Ubuntu'" font-size="12"> </tspan><tspan x="3.4" y="0" font-family="'Ubuntu'" font-size="12">N</tspan><tspan x="12" y="0" font-family="'Ubuntu'" font-size="12">o</tspan><tspan x="18.8" y="0" font-family="'Ubuntu'" font-size="12">v</tspan></text>
<g>
	<defs>
		<rect id="SVGID_1_" x="-9.2" y="0" width="295.2" height="214"/>
	</defs>
	<clipPath id="SVGID_2_">
		<use xlink:href="#SVGID_1_"  overflow="visible"/>
	</clipPath>
	<path clip-path="url(#SVGID_2_)" fill="#DFEDF7" d="M0.1,54.3C5.5,48.3,5.3,48,10.7,42c5.4-5.9,4.7-6.8,11-11.5
		c4.3-3.3,4.2-3.4,9.1-5.2c4.9-1.9,5.4-6,9.9-3C47,26.5,45.3,29,49,36.5c3.6,7.5,2.8,8.1,6.5,15.6c3.6,7.5,1.3,9.8,6.5,15.9
		c4,4.7,6.1,1.1,11.2,3.9c5.1,2.7,4.4,4.7,9.7,7.1c5.3,2.4,5.9,0.3,11.4,2.4c5.4,2.1,6.1,0.8,11,4.2c5.8,4,4.6,6.2,9.8,11.4
		c5.1,5.2,4.4,6.5,10.3,10.2c5.2,3.2,5.8,0.5,11.5,1.9c5.7,1.4,5.5,5.7,10.8,3.1c7.2-3.5,5.3-6.3,10.6-13.1
		c5.4-6.8,4.4-8.4,10.7-13.9c4.9-4.3,5.8-3,11.4-5.9c5.6-2.9,5.6-3,11.3-5.6c4.8-2.2,4.8-2.4,9.7-4.3c4.9-1.9,6.1,1.4,9.5-3.2
		c4.9-6.7,4-7.3,6.7-15.7c2.6-8.4,1.4-8.9,4.1-17.2c2.6-8.4,4-7.7,6.6-16.1c2.6-8.4,2.5-8.4,5.1-16.8v181.6H0L0.1,54.3z"/>
	
		<path clip-path="url(#SVGID_2_)" fill="none" stroke="#1F4D84" stroke-width="1.217" stroke-linejoin="bevel" stroke-miterlimit="10" d="
		M0.2,54.2c5.4-5.9,5.1-6.3,10.6-12.2c5.4-5.9,4.7-6.8,10.9-11.5c4.3-3.3,4.2-3.4,9.1-5.2c4.9-1.9,5.4-6,9.9-3
		c6.3,4.2,4.7,6.7,8.3,14.2c3.6,7.5,2.8,8.1,6.4,15.6c3.6,7.5,1.3,9.8,6.5,15.9c4,4.7,6,1.1,11.2,3.9c5.1,2.7,4.4,4.7,9.7,7.1
		c5.3,2.4,5.9,0.3,11.4,2.4c5.4,2.1,6.1,0.8,11,4.2c5.8,4,4.6,6.2,9.7,11.4c5.1,5.2,4.4,6.5,10.3,10.2c5.2,3.2,5.8,0.5,11.5,1.9
		c5.7,1.4,5.4,5.7,10.8,3c7.2-3.5,5.3-6.3,10.6-13.1c5.4-6.8,4.4-8.4,10.7-13.9c4.9-4.3,5.8-3,11.4-5.9c5.6-2.9,5.6-3,11.3-5.6
		c4.8-2.2,4.8-2.4,9.6-4.3c4.9-1.9,6.1,1.4,9.5-3.2c4.9-6.7,4-7.3,6.6-15.7c2.6-8.3,1.4-8.9,4.1-17.2c2.6-8.4,4-7.7,6.6-16.1
		c2.6-8.4,2.5-8.4,5.1-16.8"/>
</g>
<text transform="matrix(1 0 0 1 246.5507 181.3828)"><tspan x="0" y="0" font-family="'Ubuntu'" font-size="14.5981">0</tspan><tspan x="8.1" y="0" font-family="'Ubuntu'" font-size="14.5981"> </tspan><tspan x="11.3" y="0" font-family="'Ubuntu'" font-size="14.5981">€</tspan></text>
<text transform="matrix(1 0 0 1 246.5507 71.897)"><tspan x="0" y="0" font-family="'Ubuntu'" font-size="14.5981">1</tspan><tspan x="8.1" y="0" font-family="'Ubuntu'" font-size="14.5981">45 </tspan><tspan x="27.5" y="0" font-family="'Ubuntu'" font-size="14.5981">€</tspan></text>
</svg>
