<?xml version="1.0" encoding="utf-8"?>
<!-- Generator: Adobe Illustrator 16.0.0, SVG Export Plug-In . SVG Version: 6.00 Build 0)  -->
<!DOCTYPE svg PUBLIC "-//W3C//DTD SVG 1.1//EN" "http://www.w3.org/Graphics/SVG/1.1/DTD/svg11.dtd">
<svg version="1.1" id="Layer_1" xmlns="http://www.w3.org/2000/svg" xmlns:xlink="http://www.w3.org/1999/xlink" x="0px" y="0px"
	 width="75px" height="60px" viewBox="0 0 75 60" enable-background="new 0 0 75 60" xml:space="preserve">
<g>
	<defs>
		<rect id="SVGID_1_" y="0.12" width="74.253" height="59.88"/>
	</defs>
	<clipPath id="SVGID_2_">
		<use xlink:href="#SVGID_1_"  overflow="visible"/>
	</clipPath>
	
		<path clip-path="url(#SVGID_2_)" fill="none" stroke="#FFFFFF" stroke-width="2.514" stroke-linecap="round" stroke-linejoin="round" stroke-miterlimit="10" d="
		M46.951,25.326h9.617v-5.562h-9.617V25.326z M32.171,25.326h9.617v-5.562h-9.617V25.326z M17.391,25.326h9.617v-5.562h-9.617
		V25.326z M46.951,37.449h9.617v-5.563h-9.617V37.449z M32.171,37.449h9.617v-5.563h-9.617V37.449z M17.391,37.449h9.617v-5.563
		h-9.617V37.449z M46.951,49.572h9.617V44.01h-9.617V49.572z M41.788,58.181V44.01h-9.617v14.171 M17.391,49.572h9.617V44.01h-9.617
		V49.572z"/>
	
		<path clip-path="url(#SVGID_2_)" fill="none" stroke="#FFFFFF" stroke-width="2.381" stroke-linecap="round" stroke-linejoin="round" stroke-miterlimit="10" d="
		M63.919,58.81V18.642c0-5.5-4.5-10.001-10.001-10.001H20.042c-5.501,0-10.001,4.501-10.001,10.001V58.81 M1.19,58.809h71.872"/>
	<path clip-path="url(#SVGID_2_)" fill="#FFFFFF" d="M50.616,2.873l-1.065,0.775L49.957,4.9c0.081,0.246-0.009,0.517-0.218,0.67
		c-0.104,0.076-0.229,0.115-0.353,0.115s-0.248-0.038-0.354-0.115l-1.064-0.774L46.901,5.57c-0.21,0.154-0.496,0.153-0.706,0
		c-0.21-0.153-0.297-0.424-0.217-0.67l0.407-1.253L45.32,2.873c-0.21-0.152-0.298-0.423-0.217-0.67
		c0.079-0.248,0.31-0.415,0.569-0.415h1.318l0.405-1.253c0.081-0.247,0.31-0.414,0.572-0.414c0.259,0,0.489,0.167,0.569,0.414
		l0.407,1.253h1.318c0.26,0,0.488,0.167,0.569,0.415C50.914,2.45,50.826,2.721,50.616,2.873"/>
	<path clip-path="url(#SVGID_2_)" fill="#FFFFFF" d="M39.64,2.873l-1.066,0.775L38.98,4.9c0.081,0.246-0.009,0.517-0.218,0.67
		c-0.105,0.076-0.229,0.115-0.354,0.115c-0.123,0-0.248-0.038-0.353-0.115l-1.065-0.774L35.925,5.57
		c-0.21,0.154-0.496,0.153-0.706,0c-0.21-0.153-0.297-0.424-0.217-0.67l0.407-1.253l-1.065-0.775
		c-0.21-0.152-0.298-0.423-0.217-0.67c0.079-0.248,0.31-0.415,0.57-0.415h1.318l0.405-1.253c0.081-0.247,0.31-0.414,0.572-0.414
		c0.259,0,0.49,0.167,0.57,0.414l0.407,1.253h1.318c0.26,0,0.488,0.167,0.569,0.415C39.938,2.45,39.85,2.721,39.64,2.873"/>
	<path clip-path="url(#SVGID_2_)" fill="#FFFFFF" d="M28.639,2.873l-1.064,0.775L27.98,4.9c0.08,0.246-0.007,0.517-0.217,0.67
		c-0.105,0.076-0.229,0.115-0.353,0.115s-0.249-0.038-0.353-0.115l-1.066-0.774L24.926,5.57c-0.212,0.154-0.495,0.153-0.705,0
		c-0.21-0.153-0.3-0.424-0.219-0.67l0.408-1.253l-1.067-0.775c-0.21-0.152-0.298-0.423-0.217-0.67
		c0.081-0.248,0.31-0.415,0.57-0.415h1.318l0.407-1.253c0.08-0.247,0.311-0.414,0.571-0.414c0.261,0,0.49,0.167,0.571,0.414
		l0.405,1.253h1.319c0.259,0,0.49,0.167,0.569,0.415C28.937,2.45,28.849,2.721,28.639,2.873"/>
</g>
</svg>
