<?xml version="1.0" encoding="utf-8"?>
<!-- Generator: Adobe Illustrator 16.0.0, SVG Export Plug-In . SVG Version: 6.00 Build 0)  -->
<!DOCTYPE svg PUBLIC "-//W3C//DTD SVG 1.1//EN" "http://www.w3.org/Graphics/SVG/1.1/DTD/svg11.dtd">
<svg version="1.1" id="Layer_1" xmlns="http://www.w3.org/2000/svg" xmlns:xlink="http://www.w3.org/1999/xlink" x="0px" y="0px"
	 width="40px" height="61px" viewBox="0 0 40 61" enable-background="new 0 0 40 61" xml:space="preserve">
<g>
	<defs>
		<rect id="SVGID_1_" y="0.25" width="39.719" height="60.75"/>
	</defs>
	<clipPath id="SVGID_2_">
		<use xlink:href="#SVGID_1_"  overflow="visible"/>
	</clipPath>
	
		<path clip-path="url(#SVGID_2_)" fill="none" stroke="#FFFFFF" stroke-width="2.514" stroke-linecap="round" stroke-linejoin="round" stroke-miterlimit="10" d="
		M4.508,6.977v6.653 M35.701,6.188v6.653 M38.462,44.38c0,0-17.15-0.492-17.1,14.241 M38.462,44.922c0,0-2.267,17.002-16.853,14.586
		 M1.256,44.922c0,0,17.198-0.493,17.15,14.242 M1.256,44.922c0,0,2.316,17.002,16.853,14.586 M37.132,29.645
		c0,0-16.017-0.443-15.966,13.355 M37.132,30.138c0,0-2.119,15.918-15.722,13.65 M2.093,30.138c0,0,16.066-0.443,15.966,13.354
		 M2.093,30.138c0,0,2.12,15.918,15.722,13.65 M35.11,16.783c0,0-13.749-0.395-13.698,11.432 M35.11,17.178
		c0,0-1.823,13.65-13.501,11.728 M4.607,17.178c0,0,13.798-0.395,13.75,11.431 M4.607,17.178c0,0,1.823,13.65,13.502,11.728
		 M19.736,1.507c0,0,9.215,10.25,0.148,17.889 M19.736,1.507c0,0-9.216,10.25-0.148,17.889"/>
</g>
</svg>
