<?xml version="1.0" encoding="utf-8"?>
<!-- Generator: Adobe Illustrator 18.0.0, SVG Export Plug-In . SVG Version: 6.00 Build 0)  -->
<!DOCTYPE svg PUBLIC "-//W3C//DTD SVG 1.1//EN" "http://www.w3.org/Graphics/SVG/1.1/DTD/svg11.dtd">
<svg version="1.1" id="Слой_1" xmlns="http://www.w3.org/2000/svg" xmlns:xlink="http://www.w3.org/1999/xlink" x="0px" y="0px"
	 viewBox="0 0 33 20" enable-background="new 0 0 33 20" xml:space="preserve">
<g>
	<defs>
		<rect id="SVGID_1_" y="-0.2" width="33.1" height="20.2"/>
	</defs>
	<clipPath id="SVGID_2_">
		<use xlink:href="#SVGID_1_"  overflow="visible"/>
	</clipPath>
	
		<polyline clip-path="url(#SVGID_2_)" fill="none" stroke="#FFFFFF" stroke-width="1.121" stroke-linecap="round" stroke-linejoin="round" stroke-miterlimit="10" points="
		11.8,1.2 10.5,3.2 12.2,4.9 	"/>
	
		<path clip-path="url(#SVGID_2_)" fill="none" stroke="#FFFFFF" stroke-width="1.121" stroke-linejoin="round" stroke-miterlimit="10" d="
		M1.3,14.9c3.4-3.5,16.1-12.5,30.4-0.5c-1.4,1.4-3.6,3.8-3.6,3.8c-1.8-1-3.5-2-5.3-3L22.7,15c-0.3-1.1-1-2.8-1-2.9
		c-4.4-1.5-9.1-0.4-10.4,0.2l-0.8,3.1c-0.7,0.6-5.4,3.3-5.4,3.3C3.8,17.4,2.6,16.1,1.3,14.9z"/>
</g>
<line fill="none" stroke="#FFFFFF" stroke-width="1.121" stroke-linecap="round" stroke-linejoin="round" stroke-miterlimit="10" x1="11.2" y1="3" x2="19.5" y2="3"/>
</svg>
