<?xml version="1.0" encoding="utf-8"?>
<!-- Generator: Adobe Illustrator 16.0.0, SVG Export Plug-In . SVG Version: 6.00 Build 0)  -->
<!DOCTYPE svg PUBLIC "-//W3C//DTD SVG 1.1//EN" "http://www.w3.org/Graphics/SVG/1.1/DTD/svg11.dtd">
<svg version="1.1" id="Layer_1" xmlns="http://www.w3.org/2000/svg" xmlns:xlink="http://www.w3.org/1999/xlink" x="0px" y="0px"
	 width="21px" height="12px" viewBox="0 0 21 12" enable-background="new 0 0 21 12" xml:space="preserve">
<g>
	<defs>
		<rect id="SVGID_1_" y="0.174" width="20.898" height="11.826"/>
	</defs>
	<clipPath id="SVGID_2_">
		<use xlink:href="#SVGID_1_"  overflow="visible"/>
	</clipPath>
	<path clip-path="url(#SVGID_2_)" d="M1.114,1.259c0,0,0.614-0.585,2.668,1.602l4.877,5.19c0,0,2.054,2.187,4.109,0l6.93-7.377
		l0.614,0.585c0,0,0.614,0.585-1.44,2.771l-6.104,6.499c0,0-2.056,2.187-4.109,0L0.5,1.844L1.114,1.259z"/>
	<path clip-path="url(#SVGID_2_)" fill="none" stroke="#000000" stroke-miterlimit="10" d="M1.114,1.259
		c0,0,0.614-0.585,2.668,1.602l4.877,5.19c0,0,2.054,2.187,4.109,0l6.93-7.377l0.614,0.585c0,0,0.614,0.585-1.44,2.771l-6.104,6.499
		c0,0-2.056,2.187-4.109,0L0.5,1.844L1.114,1.259z"/>
</g>
</svg>
