<?xml version="1.0" encoding="utf-8"?>
<!-- Generator: Adobe Illustrator 18.0.0, SVG Export Plug-In . SVG Version: 6.00 Build 0)  -->
<!DOCTYPE svg PUBLIC "-//W3C//DTD SVG 1.1//EN" "http://www.w3.org/Graphics/SVG/1.1/DTD/svg11.dtd">
<svg version="1.1" id="Слой_1" xmlns="http://www.w3.org/2000/svg" xmlns:xlink="http://www.w3.org/1999/xlink" x="0px" y="0px"
	 viewBox="0 0 91 16" enable-background="new 0 0 91 16" xml:space="preserve">
<polygon fill="#F7E93A" points="8.1,0.5 6.2,6.4 0,6.4 5,10.1 3.1,16 8.1,12.3 13.2,16 11.2,10.1 16.3,6.4 10.1,6.4 "/>
<polygon fill="#F7E93A" points="26.6,0.5 24.7,6.4 18.5,6.4 23.5,10.1 21.6,16 26.6,12.3 31.7,16 29.7,10.1 34.8,6.4 28.6,6.4 "/>
<polygon fill="#F7E93A" points="45.1,0.5 43.2,6.4 37,6.4 42,10.1 40.1,16 45.1,12.3 50.2,16 48.2,10.1 53.3,6.4 47,6.4 "/>
<polygon fill="#F7E93A" points="63.6,0.5 61.7,6.4 55.5,6.4 60.5,10.1 58.6,16 63.6,12.3 68.6,16 66.7,10.1 71.8,6.4 65.5,6.4 "/>
<polygon fill="#F7E93A" points="82.1,0.5 80.2,6.4 74,6.4 79,10.1 77.1,16 82.1,12.3 87.1,16 85.2,10.1 90.3,6.4 84,6.4 "/>
</svg>
