<?xml version="1.0" encoding="utf-8"?>
<!-- Generator: Adobe Illustrator 16.0.0, SVG Export Plug-In . SVG Version: 6.00 Build 0)  -->
<!DOCTYPE svg PUBLIC "-//W3C//DTD SVG 1.1//EN" "http://www.w3.org/Graphics/SVG/1.1/DTD/svg11.dtd">
<svg version="1.1" id="Layer_1" xmlns="http://www.w3.org/2000/svg" xmlns:xlink="http://www.w3.org/1999/xlink" x="0px" y="0px"
	 width="106px" height="80px" viewBox="0 0 106 80" enable-background="new 0 0 106 80" xml:space="preserve">
<g>
	<defs>
		<rect id="SVGID_1_" x="1" y="0.406" width="105.036" height="79.594"/>
	</defs>
	<clipPath id="SVGID_2_">
		<use xlink:href="#SVGID_1_"  overflow="visible"/>
	</clipPath>
	
		<path clip-path="url(#SVGID_2_)" fill="none" stroke="#0974B7" stroke-width="2" stroke-linecap="round" stroke-linejoin="round" stroke-miterlimit="10" d="
		M29.638,10.416h6.876c4.139,0,7.477,3.429,7.477,7.531v17.617c0,4.168-3.338,7.598-7.477,7.598h-6.876
		c-4.139,0-7.477-3.43-7.477-7.598V17.947C22.161,13.845,25.499,10.416,29.638,10.416z M28.37,50.355
		c0,0-21.096,2.354-20.028,26.896 M2,79h103.037 M66.021,1.406h7.811c4.674,0,8.479,3.832,8.479,8.539v19.97
		c0,4.707-3.805,8.607-8.479,8.607h-7.811c-4.673,0-8.478-3.9-8.478-8.607V9.945C57.543,5.238,61.348,1.406,66.021,1.406z
		 M75.232,46.657c0,0,23.9,2.69,22.698,30.527 M64.552,46.657c0,0-23.899,2.69-22.698,30.527"/>
</g>
</svg>
