<?xml version="1.0" encoding="utf-8"?>
<!-- Generator: Adobe Illustrator 18.0.0, SVG Export Plug-In . SVG Version: 6.00 Build 0)  -->
<!DOCTYPE svg PUBLIC "-//W3C//DTD SVG 1.1//EN" "http://www.w3.org/Graphics/SVG/1.1/DTD/svg11.dtd">
<svg version="1.1" id="Ğ¡Ğ»Ğ¾Ğ¹_1" xmlns="http://www.w3.org/2000/svg" xmlns:xlink="http://www.w3.org/1999/xlink" x="0px" y="0px"
	 viewBox="0 0 108 78" enable-background="new 0 0 108 78" xml:space="preserve">
<text transform="matrix(1 0 0 1 31.9985 42.9014)"><tspan x="0" y="0" fill="#FFFFFF" font-family="'OpenSans'" font-size="15">y</tspan><tspan x="7.8" y="0" fill="#FFFFFF" font-family="'OpenSans'" font-size="15">o</tspan><tspan x="17.1" y="0" fill="#FFFFFF" font-family="'OpenSans'" font-size="15">u</tspan><tspan x="26.5" y="0" fill="#FFFFFF" font-family="'OpenSans'" font-size="15">t</tspan><tspan x="32" y="0" fill="#FFFFFF" font-family="'OpenSans'" font-size="15">ub</tspan><tspan x="50.8" y="0" fill="#FFFFFF" font-family="'OpenSans'" font-size="15">e</tspan></text>
<g>
	<defs>
		<rect id="SVGID_1_" y="0.3" width="107.8" height="77.7"/>
	</defs>
	<clipPath id="SVGID_2_">
		<use xlink:href="#SVGID_1_"  overflow="visible"/>
	</clipPath>
	<path clip-path="url(#SVGID_2_)" fill="#FFFFFF" d="M9.2,41.4v-6.5l6.2,3.2L9.2,41.4z M22,31.2c-0.8-0.7-1.1-0.9-2.8-1
		c-0.5,0-4.6-0.2-7.5-0.2C9,30,5,30.2,3.8,30.2c-1.3,0.1-1.8,0.2-2.5,0.8C0.3,32,0,33.9,0,36.8v2.8c0,3.3,0.4,5,1.2,5.6
		C2,45.8,2.5,45.9,3.1,46c0.2,0,1.7,0.3,8.5,0.3c4.2,0,7.8-0.2,8.2-0.2c0.6-0.1,1.5-0.2,2.1-0.9c1-1.1,1.2-2.9,1.2-5.6v-3.2
		C23.1,34.6,23,32.2,22,31.2"/>
</g>
</svg>
